M48
;DRILL file {KiCad (2016-04-29 BZR 6716)-stable} date Wed 03 Aug 2016 14:46:32 CEST
;FORMAT={-:-/ absolute / metric / decimal}
FMAT,2
METRIC,TZ
T1C0.600
T2C0.800
T3C1.001
T4C1.016
T5C1.143
T6C1.200
T7C1.270
T8C1.300
%
G90
G05
M71
T1
X79.7Y-116.5
X81.5Y-111.5
T2
X85.Y-111.5
X100.Y-111.5
X108.38Y-107.
X108.38Y-109.54
X109.Y-127.46
X109.Y-130.
X116.Y-107.
X116.Y-109.54
X116.62Y-127.46
X116.62Y-130.
X127.5Y-111.
X128.88Y-115.52
X128.88Y-118.06
X128.88Y-120.6
X128.88Y-123.14
X128.88Y-125.68
X128.88Y-128.22
X128.88Y-130.76
X128.88Y-133.3
X128.88Y-135.84
X128.88Y-138.38
X128.88Y-140.92
X128.88Y-143.46
X128.88Y-146.
X128.88Y-148.54
X136.5Y-115.52
X136.5Y-118.06
X136.5Y-120.6
X136.5Y-123.14
X136.5Y-125.68
X136.5Y-128.22
X136.5Y-130.76
X136.5Y-133.3
X136.5Y-135.84
X136.5Y-138.38
X136.5Y-140.92
X136.5Y-143.46
X136.5Y-146.
X136.5Y-148.54
X139.97Y-110.917
X140.511Y-135.832
X140.54Y-141.04
X144.5Y-124.
X144.5Y-130.
X149.Y-132.
X149.Y-136.5
X153.245Y-130.761
X153.25Y-112.25
X153.25Y-124.
X153.25Y-124.
X153.25Y-125.5
T3
X85.Y-116.5
X85.5Y-130.997
X85.5Y-135.997
X87.5Y-105.5
X90.04Y-105.5
X92.58Y-105.5
X95.66Y-122.
X95.66Y-126.5
X98.34Y-134.
X98.5Y-123.5
X100.Y-116.5
X104.Y-102.84
X104.Y-113.
X106.34Y-154.
X106.34Y-157.003
X108.5Y-134.
X108.66Y-123.5
X116.5Y-160.
X116.5Y-163.
X119.5Y-168.
X142.Y-121.34
X142.003Y-108.5
T4
X143.46Y-135.96
X143.46Y-138.5
X143.46Y-141.04
X146.Y-135.96
X146.Y-138.5
X146.Y-141.04
T5
X129.5Y-156.42
X129.5Y-158.96
X129.5Y-161.5
T6
X79.Y-148.25
X79.Y-168.25
X99.Y-153.25
X99.Y-163.25
T7
X85.5Y-122.
X85.5Y-126.5
X95.66Y-130.997
X95.66Y-135.997
X106.34Y-160.
X106.34Y-163.
X116.5Y-154.
X116.5Y-157.003
X129.66Y-168.
X142.Y-131.5
X142.003Y-118.66
T8
X73.Y-107.5
X73.Y-112.5
X73.Y-117.5
X73.Y-122.5
X73.Y-127.5
X73.Y-132.5
X116.5Y-138.
X116.5Y-143.
X116.5Y-148.
X159.Y-103.5
X159.Y-108.5
X159.Y-113.5
X159.Y-119.75
X159.Y-124.75
X159.Y-129.75
T0
M30
