G04 #@! TF.FileFunction,Copper,L2,Bot,Signal*
%FSLAX46Y46*%
G04 Gerber Fmt 4.6, Leading zero omitted, Abs format (unit mm)*
G04 Created by KiCad (PCBNEW (2016-04-29 BZR 6716)-stable) date Wed 03 Aug 2016 14:46:39 CEST*
%MOMM*%
%LPD*%
G01*
G04 APERTURE LIST*
%ADD10C,0.100000*%
%ADD11O,2.300000X1.600000*%
%ADD12R,0.750000X1.200000*%
%ADD13R,1.200000X0.750000*%
%ADD14R,1.727200X1.727200*%
%ADD15O,1.727200X1.727200*%
%ADD16C,1.998980*%
%ADD17R,1.998980X1.998980*%
%ADD18R,0.900000X1.200000*%
%ADD19R,1.200000X0.900000*%
%ADD20R,1.550000X0.600000*%
%ADD21C,1.600000*%
%ADD22C,2.500000*%
%ADD23R,2.500000X2.500000*%
%ADD24O,1.699260X3.500120*%
%ADD25R,1.400000X1.400000*%
%ADD26C,1.400000*%
%ADD27R,1.800860X3.149600*%
%ADD28O,2.540000X2.032000*%
%ADD29C,1.200000*%
%ADD30C,1.000000*%
%ADD31C,0.800000*%
%ADD32C,0.250000*%
%ADD33C,0.300000*%
%ADD34C,0.400000*%
%ADD35C,0.254000*%
G04 APERTURE END LIST*
D10*
D11*
X128880000Y-115520000D03*
X128880000Y-118060000D03*
X128880000Y-120600000D03*
X128880000Y-123140000D03*
X128880000Y-125680000D03*
X128880000Y-128220000D03*
X128880000Y-130760000D03*
X128880000Y-133300000D03*
X128880000Y-135840000D03*
X128880000Y-138380000D03*
X128880000Y-140920000D03*
X128880000Y-143460000D03*
X128880000Y-146000000D03*
X128880000Y-148540000D03*
X136500000Y-148540000D03*
X136500000Y-146000000D03*
X136500000Y-143460000D03*
X136500000Y-140920000D03*
X136500000Y-138380000D03*
X136500000Y-135840000D03*
X136500000Y-133300000D03*
X136500000Y-130760000D03*
X136500000Y-128220000D03*
X136500000Y-125680000D03*
X136500000Y-123140000D03*
X136500000Y-120600000D03*
X136500000Y-118060000D03*
X136500000Y-115520000D03*
D12*
X120500000Y-158700000D03*
X120500000Y-156800000D03*
X139500000Y-131400000D03*
X139500000Y-129500000D03*
D13*
X125900000Y-119000000D03*
X124000000Y-119000000D03*
D12*
X137250000Y-159550000D03*
X137250000Y-161450000D03*
D13*
X123100000Y-143000000D03*
X125000000Y-143000000D03*
X146500000Y-129500000D03*
X148400000Y-129500000D03*
X146500000Y-123500000D03*
X148400000Y-123500000D03*
D14*
X146000000Y-141040000D03*
D15*
X143460000Y-141040000D03*
X146000000Y-138500000D03*
X143460000Y-138500000D03*
X146000000Y-135960000D03*
X143460000Y-135960000D03*
D16*
X85500000Y-126500000D03*
D17*
X95660000Y-126500000D03*
D16*
X85500000Y-122000000D03*
D17*
X95660000Y-122000000D03*
D16*
X95660000Y-135997460D03*
D17*
X85500000Y-135997460D03*
D16*
X95660000Y-130997460D03*
D17*
X85500000Y-130997460D03*
D16*
X106340000Y-163000000D03*
D17*
X116500000Y-163000000D03*
D16*
X106340000Y-160000000D03*
D17*
X116500000Y-160000000D03*
D16*
X116500000Y-154000000D03*
D17*
X106340000Y-154000000D03*
D16*
X116500000Y-157002540D03*
D17*
X106340000Y-157002540D03*
D16*
X142000000Y-131500000D03*
D17*
X142000000Y-121340000D03*
D16*
X142002540Y-118660000D03*
D17*
X142002540Y-108500000D03*
D16*
X108660000Y-123500000D03*
X98500000Y-123500000D03*
X108500000Y-134000000D03*
X98340000Y-134000000D03*
X104000000Y-113000000D03*
X104000000Y-102840000D03*
D18*
X125500000Y-127900000D03*
X125500000Y-130100000D03*
D19*
X122100000Y-109500000D03*
X119900000Y-109500000D03*
D18*
X133000000Y-131100000D03*
X133000000Y-128900000D03*
D19*
X123800000Y-115500000D03*
X126000000Y-115500000D03*
X122800000Y-141000000D03*
X125000000Y-141000000D03*
X148700000Y-127500000D03*
X146500000Y-127500000D03*
X148700000Y-125500000D03*
X146500000Y-125500000D03*
D20*
X158000000Y-135960000D03*
X158000000Y-137230000D03*
X158000000Y-138500000D03*
X158000000Y-139770000D03*
X152600000Y-139770000D03*
X152600000Y-138500000D03*
X152600000Y-137230000D03*
X152600000Y-135960000D03*
D21*
X79700000Y-116500000D03*
X81500000Y-111500000D03*
D22*
X73000000Y-107500000D03*
X73000000Y-112500000D03*
X73000000Y-117500000D03*
X73000000Y-122500000D03*
D23*
X73000000Y-132500000D03*
D22*
X73000000Y-127500000D03*
D24*
X90040000Y-105500000D03*
X87500000Y-105500000D03*
X92580000Y-105500000D03*
D11*
X109000000Y-127460000D03*
X109000000Y-130000000D03*
X116620000Y-130000000D03*
X116620000Y-127460000D03*
X116000000Y-109540000D03*
X116000000Y-107000000D03*
X108380000Y-107000000D03*
X108380000Y-109540000D03*
D25*
X100000000Y-111500000D03*
D26*
X85000000Y-111500000D03*
D16*
X85000000Y-116500000D03*
X100000000Y-116500000D03*
D13*
X156450000Y-134000000D03*
X154550000Y-134000000D03*
D12*
X132000000Y-133550000D03*
X132000000Y-135450000D03*
X162500000Y-125950000D03*
X162500000Y-124050000D03*
X112500000Y-142100000D03*
X112500000Y-144000000D03*
X162500000Y-109450000D03*
X162500000Y-107550000D03*
D22*
X116500000Y-138000000D03*
D23*
X116500000Y-148000000D03*
D22*
X116500000Y-143000000D03*
X159000000Y-129750000D03*
D23*
X159000000Y-119750000D03*
D22*
X159000000Y-124750000D03*
X159000000Y-113500000D03*
D23*
X159000000Y-103500000D03*
D22*
X159000000Y-108500000D03*
D16*
X129660000Y-168000000D03*
D17*
X119500000Y-168000000D03*
D18*
X123000000Y-162900000D03*
X123000000Y-165100000D03*
D19*
X132900000Y-161500000D03*
X135100000Y-161500000D03*
X135100000Y-159500000D03*
X132900000Y-159500000D03*
D18*
X139000000Y-159400000D03*
X139000000Y-161600000D03*
D27*
X123000000Y-159875980D03*
X123000000Y-155624020D03*
X141750000Y-162625980D03*
X141750000Y-158374020D03*
D28*
X129500000Y-158960000D03*
X129500000Y-156420000D03*
X129500000Y-161500000D03*
D22*
X79000000Y-148250000D03*
X79000000Y-168250000D03*
X99000000Y-153250000D03*
X99000000Y-163250000D03*
D29*
X139970165Y-110916745D03*
X127500000Y-111000000D03*
X144500000Y-124000000D03*
X144500000Y-130000000D03*
X149000000Y-132000000D03*
X149000000Y-136500000D03*
X153244764Y-130761154D03*
X153250000Y-112250000D03*
X153250000Y-124000000D03*
X153250000Y-124000000D03*
X153250000Y-125500000D03*
X140510866Y-135832321D03*
X140540000Y-141040000D03*
D30*
X100000000Y-116500000D02*
X100000000Y-111500000D01*
X81500000Y-111500000D02*
X74000000Y-111500000D01*
X74000000Y-111500000D02*
X73000000Y-112500000D01*
X85000000Y-111500000D02*
X85000000Y-108000000D01*
X85000000Y-108000000D02*
X87500000Y-105500000D01*
X81500000Y-111500000D02*
X85000000Y-111500000D01*
D31*
X119500000Y-168000000D02*
X119500000Y-166000000D01*
X119500000Y-166000000D02*
X116500000Y-163000000D01*
X120500000Y-158700000D02*
X120670526Y-158700000D01*
X120670526Y-158700000D02*
X123000000Y-156370526D01*
X123000000Y-156370526D02*
X123000000Y-155624020D01*
X116500000Y-160000000D02*
X118025000Y-160000000D01*
X118025000Y-160000000D02*
X119325000Y-158700000D01*
X119325000Y-158700000D02*
X120500000Y-158700000D01*
X123000000Y-155624020D02*
X128704020Y-155624020D01*
X128704020Y-155624020D02*
X129500000Y-156420000D01*
X123000000Y-156298390D02*
X123000000Y-155624020D01*
X116500000Y-160000000D02*
X116500000Y-163000000D01*
D32*
X143460000Y-135960000D02*
X142238686Y-135960000D01*
X142238686Y-135960000D02*
X141105328Y-137093358D01*
X141105328Y-137093358D02*
X135156642Y-137093358D01*
X135156642Y-137093358D02*
X133500000Y-138750000D01*
D31*
X116500000Y-157002540D02*
X116500000Y-154000000D01*
X120500000Y-156800000D02*
X116702540Y-156800000D01*
X116702540Y-156800000D02*
X116500000Y-157002540D01*
X137250000Y-161450000D02*
X135150000Y-161450000D01*
X135150000Y-161450000D02*
X135100000Y-161500000D01*
X139000000Y-161600000D02*
X137400000Y-161600000D01*
X137400000Y-161600000D02*
X137250000Y-161450000D01*
D33*
X134500000Y-121750000D02*
X134610465Y-121860465D01*
X134610465Y-121860465D02*
X138389535Y-121860465D01*
X138389535Y-121860465D02*
X138500000Y-121750000D01*
X134500000Y-124500000D02*
X134595157Y-124404843D01*
X134595157Y-124404843D02*
X138404843Y-124404843D01*
X138404843Y-124404843D02*
X138500000Y-124500000D01*
D31*
X134500000Y-124500000D02*
X134500000Y-122250000D01*
X134500000Y-129110000D02*
X134500000Y-124500000D01*
X134500000Y-121750000D02*
X134500000Y-119250000D01*
X134500000Y-122250000D02*
X134500000Y-121750000D01*
D33*
X134500000Y-119250000D02*
X134582609Y-119332609D01*
X134582609Y-119332609D02*
X138500000Y-119332609D01*
X138500000Y-119332609D02*
X138500000Y-119250000D01*
D31*
X136150000Y-130760000D02*
X134500000Y-129110000D01*
X136500000Y-130760000D02*
X136150000Y-130760000D01*
X162500000Y-109450000D02*
X162500000Y-110000000D01*
X162500000Y-110000000D02*
X159000000Y-113500000D01*
X162500000Y-125950000D02*
X162500000Y-126250000D01*
X162500000Y-126250000D02*
X159000000Y-129750000D01*
X112500000Y-142100000D02*
X112500000Y-142000000D01*
X112500000Y-142000000D02*
X116500000Y-138000000D01*
D34*
X136500000Y-130760000D02*
X138860000Y-130760000D01*
X138860000Y-130760000D02*
X139500000Y-131400000D01*
X128880000Y-133300000D02*
X131750000Y-133300000D01*
X131750000Y-133300000D02*
X132000000Y-133550000D01*
X155500000Y-136000000D02*
X156450000Y-135050000D01*
X156450000Y-135050000D02*
X156450000Y-134000000D01*
X155500000Y-139000000D02*
X155500000Y-136000000D01*
X156270000Y-139770000D02*
X155500000Y-139000000D01*
X158000000Y-139770000D02*
X156270000Y-139770000D01*
X133000000Y-129050000D02*
X133000000Y-128900000D01*
X134500000Y-130550000D02*
X133000000Y-129050000D01*
X136150000Y-133300000D02*
X134500000Y-131650000D01*
X136500000Y-133300000D02*
X136150000Y-133300000D01*
X134500000Y-131650000D02*
X134500000Y-130550000D01*
X142000000Y-130000000D02*
X141500000Y-129500000D01*
X141500000Y-129500000D02*
X139500000Y-129500000D01*
X142000000Y-131500000D02*
X142000000Y-130000000D01*
X136500000Y-133300000D02*
X140200000Y-133300000D01*
X140200000Y-133300000D02*
X142000000Y-131500000D01*
D31*
X144500000Y-124000000D02*
X144500000Y-115446580D01*
X140570164Y-111516744D02*
X139970165Y-110916745D01*
X144500000Y-115446580D02*
X140570164Y-111516744D01*
X125250000Y-117500000D02*
X125575000Y-117500000D01*
X125575000Y-117500000D02*
X125900000Y-117825000D01*
X125900000Y-117825000D02*
X125900000Y-119000000D01*
X127500000Y-111000000D02*
X125809998Y-111000000D01*
X123309998Y-117500000D02*
X125250000Y-117500000D01*
X125809998Y-111000000D02*
X122065868Y-114744130D01*
X122065868Y-114744130D02*
X122065868Y-116255870D01*
X122065868Y-116255870D02*
X123309998Y-117500000D01*
X125250000Y-117500000D02*
X126000000Y-116750000D01*
X126000000Y-116750000D02*
X126000000Y-115500000D01*
X149000000Y-132000000D02*
X146500000Y-132000000D01*
X146500000Y-132000000D02*
X144500000Y-130000000D01*
X146000000Y-135960000D02*
X148460000Y-135960000D01*
X148460000Y-135960000D02*
X149000000Y-136500000D01*
D34*
X128880000Y-115520000D02*
X126020000Y-115520000D01*
X126020000Y-115520000D02*
X126000000Y-115500000D01*
D31*
X153844763Y-131361153D02*
X153244764Y-130761154D01*
X154550000Y-132066390D02*
X153844763Y-131361153D01*
X154550000Y-134000000D02*
X154550000Y-132066390D01*
X124181469Y-148000000D02*
X130500000Y-154318531D01*
X130500000Y-154318531D02*
X132500000Y-156318531D01*
X132000000Y-135450000D02*
X132000000Y-152818531D01*
X132000000Y-152818531D02*
X130500000Y-154318531D01*
X129500000Y-158960000D02*
X129246000Y-158960000D01*
X129246000Y-158960000D02*
X127374371Y-160831629D01*
X127374371Y-160831629D02*
X127374371Y-165714371D01*
X127374371Y-165714371D02*
X128660511Y-167000511D01*
X128660511Y-167000511D02*
X129660000Y-168000000D01*
X116500000Y-148000000D02*
X124181469Y-148000000D01*
X132500000Y-156318531D02*
X132500000Y-158250000D01*
X130464000Y-158250000D02*
X132500000Y-158250000D01*
X132500000Y-158250000D02*
X133700000Y-158250000D01*
X137250000Y-159550000D02*
X137250000Y-159019998D01*
X137250000Y-159019998D02*
X138069999Y-158199999D01*
X138069999Y-158199999D02*
X139875549Y-158199999D01*
X139875549Y-158199999D02*
X140049570Y-158374020D01*
X140049570Y-158374020D02*
X141750000Y-158374020D01*
X135100000Y-159500000D02*
X137200000Y-159500000D01*
X137200000Y-159500000D02*
X137250000Y-159550000D01*
X129500000Y-158960000D02*
X129754000Y-158960000D01*
X129754000Y-158960000D02*
X130464000Y-158250000D01*
X133700000Y-158250000D02*
X134950000Y-159500000D01*
X134950000Y-159500000D02*
X135100000Y-159500000D01*
X153250000Y-124000000D02*
X154500000Y-124000000D01*
X154500000Y-124000000D02*
X158750000Y-119750000D01*
X158750000Y-119750000D02*
X159000000Y-119750000D01*
X153250000Y-112250000D02*
X153250000Y-107200000D01*
X153250000Y-107200000D02*
X156950000Y-103500000D01*
X156950000Y-103500000D02*
X159000000Y-103500000D01*
X153250000Y-125500000D02*
X153250000Y-124000000D01*
X162500000Y-107550000D02*
X162500000Y-107000000D01*
X162500000Y-107000000D02*
X159000000Y-103500000D01*
X162500000Y-124050000D02*
X162500000Y-123250000D01*
X162500000Y-123250000D02*
X159000000Y-119750000D01*
X112500000Y-144000000D02*
X116500000Y-148000000D01*
X125500000Y-130100000D02*
X128220000Y-130100000D01*
X128220000Y-130100000D02*
X128880000Y-130760000D01*
X128880000Y-130760000D02*
X132660000Y-130760000D01*
X132660000Y-130760000D02*
X133000000Y-131100000D01*
D34*
X130000000Y-113500000D02*
X125950000Y-113500000D01*
X125950000Y-113500000D02*
X123950000Y-115500000D01*
X123950000Y-115500000D02*
X123800000Y-115500000D01*
X131500000Y-115000000D02*
X130000000Y-113500000D01*
X131500000Y-130760000D02*
X128880000Y-130760000D01*
X132760000Y-130760000D02*
X131500000Y-130760000D01*
X131500000Y-130760000D02*
X131500000Y-115000000D01*
X133000000Y-131500000D02*
X133390000Y-131890000D01*
X133390000Y-131890000D02*
X133390000Y-135840000D01*
X133000000Y-131100000D02*
X133000000Y-131500000D01*
X133390000Y-135840000D02*
X133000000Y-135450000D01*
X133000000Y-135450000D02*
X132000000Y-135450000D01*
X134500000Y-135840000D02*
X133390000Y-135840000D01*
X136500000Y-135840000D02*
X134500000Y-135840000D01*
X152600000Y-135960000D02*
X152600000Y-135950000D01*
X152600000Y-135950000D02*
X154550000Y-134000000D01*
X148965000Y-133500000D02*
X142843187Y-133500000D01*
X142843187Y-133500000D02*
X140510866Y-135832321D01*
X152600000Y-135960000D02*
X151425000Y-135960000D01*
X151425000Y-135960000D02*
X148965000Y-133500000D01*
X136500000Y-135840000D02*
X140503187Y-135840000D01*
X140503187Y-135840000D02*
X140510866Y-135832321D01*
X143460000Y-141040000D02*
X140540000Y-141040000D01*
D31*
X125000000Y-141000000D02*
X128800000Y-141000000D01*
X128800000Y-141000000D02*
X128880000Y-140920000D01*
X125000000Y-143000000D02*
X125000000Y-141000000D01*
X146500000Y-127500000D02*
X146500000Y-129500000D01*
X137280000Y-128220000D02*
X138000000Y-127500000D01*
X138000000Y-127500000D02*
X146500000Y-127500000D01*
X136500000Y-128220000D02*
X137280000Y-128220000D01*
X146500000Y-123500000D02*
X146500000Y-125500000D01*
X136500000Y-125680000D02*
X146320000Y-125680000D01*
X146320000Y-125680000D02*
X146500000Y-125500000D01*
D34*
X146000000Y-141040000D02*
X146000000Y-142303600D01*
X136500000Y-140920000D02*
X136850000Y-140920000D01*
X136850000Y-140920000D02*
X138930000Y-143000000D01*
X138930000Y-143000000D02*
X146696400Y-143000000D01*
X146696400Y-143000000D02*
X158500000Y-143000000D01*
X146000000Y-142303600D02*
X146696400Y-143000000D01*
X160000000Y-138000000D02*
X159230000Y-137230000D01*
X159230000Y-137230000D02*
X158000000Y-137230000D01*
X160000000Y-141500000D02*
X160000000Y-138000000D01*
X158500000Y-143000000D02*
X160000000Y-141500000D01*
X138050000Y-138380000D02*
X136500000Y-138380000D01*
X141730913Y-138380000D02*
X138050000Y-138380000D01*
X142887312Y-137223601D02*
X141730913Y-138380000D01*
X146000000Y-138500000D02*
X144723601Y-137223601D01*
X144723601Y-137223601D02*
X142887312Y-137223601D01*
X152600000Y-138500000D02*
X146000000Y-138500000D01*
X152598625Y-139768625D02*
X144728625Y-139768625D01*
X134500000Y-143010000D02*
X134500000Y-140872930D01*
X134500000Y-140872930D02*
X135652940Y-139719990D01*
X135652940Y-139719990D02*
X142240010Y-139719990D01*
X142240010Y-139719990D02*
X142596401Y-139363599D01*
X134950000Y-143460000D02*
X134500000Y-143010000D01*
X142596401Y-139363599D02*
X143460000Y-138500000D01*
X136500000Y-143460000D02*
X134950000Y-143460000D01*
X152600000Y-139770000D02*
X152598625Y-139768625D01*
X144728625Y-139768625D02*
X143460000Y-138500000D01*
D30*
X79000000Y-148250000D02*
X79000000Y-135997460D01*
X85500000Y-135997460D02*
X79000000Y-135997460D01*
X79000000Y-135997460D02*
X78000000Y-135997460D01*
X78000000Y-135997460D02*
X71297458Y-135997460D01*
X71297458Y-135997460D02*
X69500000Y-134200002D01*
X69500000Y-134200002D02*
X69500000Y-127500000D01*
X90000000Y-135000000D02*
X89002540Y-135997460D01*
X89002540Y-135997460D02*
X85500000Y-135997460D01*
X90000000Y-127000000D02*
X90000000Y-135000000D01*
X89500000Y-126500000D02*
X90000000Y-127000000D01*
X85500000Y-126500000D02*
X89500000Y-126500000D01*
X69500000Y-107500000D02*
X73000000Y-107500000D01*
X69500000Y-117500000D02*
X69500000Y-107500000D01*
X69500000Y-117500000D02*
X73000000Y-117500000D01*
X69500000Y-127500000D02*
X69500000Y-117500000D01*
X73000000Y-127500000D02*
X69500000Y-127500000D01*
X95660000Y-122000000D02*
X97000000Y-122000000D01*
X97000000Y-122000000D02*
X98500000Y-123500000D01*
X95660000Y-126500000D02*
X95840000Y-126500000D01*
X95840000Y-126500000D02*
X98840000Y-123500000D01*
X98340000Y-134000000D02*
X97657460Y-134000000D01*
X97657460Y-134000000D02*
X95660000Y-135997460D01*
X95660000Y-130997460D02*
X95660000Y-131320000D01*
X95660000Y-131320000D02*
X98340000Y-134000000D01*
D31*
X106340000Y-163000000D02*
X99250000Y-163000000D01*
X99250000Y-163000000D02*
X99000000Y-163250000D01*
X106340000Y-154000000D02*
X106787985Y-154000000D01*
X106787985Y-154000000D02*
X109000000Y-156212015D01*
X109000000Y-156212015D02*
X109000000Y-160578525D01*
X109000000Y-160578525D02*
X106578525Y-163000000D01*
X106578525Y-163000000D02*
X106340000Y-163000000D01*
X106340000Y-157002540D02*
X102752540Y-157002540D01*
X102752540Y-157002540D02*
X99000000Y-153250000D01*
X106340000Y-160000000D02*
X106340000Y-157002540D01*
X142000000Y-121340000D02*
X142000000Y-118662540D01*
X142000000Y-118662540D02*
X142002540Y-118660000D01*
D34*
X136150000Y-115520000D02*
X136500000Y-115520000D01*
X134950000Y-114320000D02*
X136150000Y-115520000D01*
X134950000Y-113970000D02*
X134950000Y-114320000D01*
X122100000Y-109500000D02*
X130480000Y-109500000D01*
X130480000Y-109500000D02*
X134950000Y-113970000D01*
X158000000Y-135960000D02*
X160460000Y-135960000D01*
X160460000Y-135960000D02*
X160500000Y-136000000D01*
D31*
X161500000Y-137000000D02*
X160500000Y-136000000D01*
X161500000Y-143000000D02*
X161500000Y-137000000D01*
X158500000Y-146000000D02*
X161500000Y-143000000D01*
X136500000Y-146000000D02*
X158500000Y-146000000D01*
X125500000Y-127900000D02*
X117060000Y-127900000D01*
X117060000Y-127900000D02*
X116620000Y-127460000D01*
X128880000Y-123140000D02*
X128530000Y-123140000D01*
X128530000Y-123140000D02*
X125500000Y-126170000D01*
X125500000Y-126170000D02*
X125500000Y-126500000D01*
X125500000Y-126500000D02*
X125500000Y-127900000D01*
D34*
X125820000Y-128220000D02*
X125500000Y-127900000D01*
D30*
X109000000Y-124500000D02*
X109000000Y-127460000D01*
X109000000Y-123500000D02*
X109000000Y-124500000D01*
X109000000Y-124500000D02*
X109000000Y-123840000D01*
X109000000Y-123840000D02*
X108660000Y-123500000D01*
X109000000Y-130000000D02*
X109000000Y-133500000D01*
X109000000Y-133500000D02*
X108500000Y-134000000D01*
X104000000Y-113000000D02*
X104920000Y-113000000D01*
X104920000Y-113000000D02*
X108380000Y-109540000D01*
X98660000Y-102840000D02*
X96000000Y-105500000D01*
X96000000Y-105500000D02*
X92580000Y-105500000D01*
X104000000Y-102840000D02*
X98660000Y-102840000D01*
D34*
X116000000Y-109540000D02*
X119860000Y-109540000D01*
X119860000Y-109540000D02*
X119900000Y-109500000D01*
D30*
X73000000Y-132500000D02*
X79500000Y-132500000D01*
X93000000Y-124500000D02*
X93000000Y-143500000D01*
X79000000Y-168250000D02*
X79000000Y-157500000D01*
X79000000Y-157500000D02*
X93000000Y-143500000D01*
X90500000Y-122000000D02*
X93000000Y-124500000D01*
X85500000Y-122000000D02*
X90500000Y-122000000D01*
X85000000Y-116500000D02*
X90040000Y-111460000D01*
X90040000Y-111460000D02*
X90040000Y-105500000D01*
X85500000Y-122000000D02*
X85500000Y-117000000D01*
X85500000Y-117000000D02*
X85000000Y-116500000D01*
X79500000Y-122500000D02*
X79700000Y-122300000D01*
X79700000Y-122300000D02*
X79700000Y-116500000D01*
X73000000Y-122500000D02*
X79500000Y-122500000D01*
X79500000Y-122500000D02*
X85000000Y-122500000D01*
X79700000Y-122700000D02*
X79500000Y-122500000D01*
X79700000Y-132300000D02*
X79700000Y-122700000D01*
X83997460Y-132500000D02*
X85500000Y-130997460D01*
X85000000Y-122500000D02*
X85500000Y-122000000D01*
X79500000Y-132500000D02*
X83997460Y-132500000D01*
X79500000Y-132500000D02*
X79700000Y-132300000D01*
D31*
X122800000Y-141000000D02*
X120500000Y-141000000D01*
X120500000Y-141000000D02*
X118500000Y-143000000D01*
X116500000Y-143000000D02*
X118500000Y-143000000D01*
X148700000Y-127500000D02*
X156250000Y-127500000D01*
X156250000Y-127500000D02*
X159000000Y-124750000D01*
X159000000Y-108500000D02*
X152750000Y-114750000D01*
X152750000Y-121600000D02*
X148850000Y-125500000D01*
X152750000Y-114750000D02*
X152750000Y-121600000D01*
X148850000Y-125500000D02*
X148700000Y-125500000D01*
X123000000Y-162900000D02*
X123000000Y-159875980D01*
X139000000Y-159400000D02*
X141750000Y-162150000D01*
X141750000Y-162150000D02*
X141750000Y-162625980D01*
X132900000Y-161500000D02*
X132900000Y-159500000D01*
X129500000Y-161500000D02*
X132900000Y-161500000D01*
D35*
G36*
X164290000Y-174290000D02*
X94127000Y-174290000D01*
X94127000Y-155052606D01*
X95556301Y-153623305D01*
X97114674Y-153623305D01*
X97401043Y-154316372D01*
X97930839Y-154847093D01*
X98623405Y-155134672D01*
X99373305Y-155135326D01*
X99407490Y-155121201D01*
X102020682Y-157734393D01*
X102020684Y-157734396D01*
X102356463Y-157958755D01*
X102752540Y-158037541D01*
X102752545Y-158037540D01*
X104700133Y-158037540D01*
X104742353Y-158249795D01*
X104882701Y-158459839D01*
X105092745Y-158600187D01*
X105305000Y-158642407D01*
X105305000Y-158723691D01*
X104955154Y-159072927D01*
X104705794Y-159673453D01*
X104705226Y-160323694D01*
X104953538Y-160924655D01*
X105412927Y-161384846D01*
X105690189Y-161499975D01*
X105415345Y-161613538D01*
X105063269Y-161965000D01*
X100380710Y-161965000D01*
X100069161Y-161652907D01*
X99376595Y-161365328D01*
X98626695Y-161364674D01*
X97933628Y-161651043D01*
X97402907Y-162180839D01*
X97115328Y-162873405D01*
X97114674Y-163623305D01*
X97401043Y-164316372D01*
X97930839Y-164847093D01*
X98623405Y-165134672D01*
X99373305Y-165135326D01*
X100066372Y-164848957D01*
X100597093Y-164319161D01*
X100715087Y-164035000D01*
X105063691Y-164035000D01*
X105412927Y-164384846D01*
X106013453Y-164634206D01*
X106663694Y-164634774D01*
X107264655Y-164386462D01*
X107724846Y-163927073D01*
X107974206Y-163326547D01*
X107974432Y-163067805D01*
X109731853Y-161310383D01*
X109731856Y-161310381D01*
X109956215Y-160974602D01*
X109977382Y-160868190D01*
X110035001Y-160578525D01*
X110035000Y-160578520D01*
X110035000Y-156738122D01*
X114854599Y-156738122D01*
X114878659Y-157387917D01*
X115081035Y-157876498D01*
X115347837Y-157975097D01*
X116320395Y-157002540D01*
X116679605Y-157002540D01*
X117652163Y-157975097D01*
X117918965Y-157876498D01*
X118145401Y-157266958D01*
X118121341Y-156617163D01*
X117918965Y-156128582D01*
X117770434Y-156073691D01*
X119490000Y-156073691D01*
X119490000Y-156514250D01*
X119648750Y-156673000D01*
X120373000Y-156673000D01*
X120373000Y-155723750D01*
X120214250Y-155565000D01*
X119998690Y-155565000D01*
X119765301Y-155661673D01*
X119586673Y-155840302D01*
X119490000Y-156073691D01*
X117770434Y-156073691D01*
X117652163Y-156029983D01*
X116679605Y-157002540D01*
X116320395Y-157002540D01*
X115347837Y-156029983D01*
X115081035Y-156128582D01*
X114854599Y-156738122D01*
X110035000Y-156738122D01*
X110035000Y-156212020D01*
X110035001Y-156212015D01*
X109956215Y-155815938D01*
X109843288Y-155646930D01*
X109731856Y-155480159D01*
X109731853Y-155480157D01*
X109403860Y-155152163D01*
X115527443Y-155152163D01*
X115626042Y-155418965D01*
X115835550Y-155496794D01*
X115626042Y-155583575D01*
X115527443Y-155850377D01*
X116500000Y-156822935D01*
X117472557Y-155850377D01*
X117373958Y-155583575D01*
X117164450Y-155505746D01*
X117373958Y-155418965D01*
X117472557Y-155152163D01*
X116500000Y-154179605D01*
X115527443Y-155152163D01*
X109403860Y-155152163D01*
X107987279Y-153735582D01*
X114854599Y-153735582D01*
X114878659Y-154385377D01*
X115081035Y-154873958D01*
X115347837Y-154972557D01*
X116320395Y-154000000D01*
X116679605Y-154000000D01*
X117652163Y-154972557D01*
X117918965Y-154873958D01*
X118145401Y-154264418D01*
X118121341Y-153614623D01*
X117918965Y-153126042D01*
X117652163Y-153027443D01*
X116679605Y-154000000D01*
X116320395Y-154000000D01*
X115347837Y-153027443D01*
X115081035Y-153126042D01*
X114854599Y-153735582D01*
X107987279Y-153735582D01*
X107986930Y-153735233D01*
X107986930Y-153000510D01*
X107956562Y-152847837D01*
X115527443Y-152847837D01*
X116500000Y-153820395D01*
X117472557Y-152847837D01*
X117373958Y-152581035D01*
X116764418Y-152354599D01*
X116114623Y-152378659D01*
X115626042Y-152581035D01*
X115527443Y-152847837D01*
X107956562Y-152847837D01*
X107937647Y-152752745D01*
X107797299Y-152542701D01*
X107587255Y-152402353D01*
X107339490Y-152353070D01*
X105340510Y-152353070D01*
X105092745Y-152402353D01*
X104882701Y-152542701D01*
X104742353Y-152752745D01*
X104693070Y-153000510D01*
X104693070Y-154999490D01*
X104742353Y-155247255D01*
X104882701Y-155457299D01*
X104948508Y-155501270D01*
X104882701Y-155545241D01*
X104742353Y-155755285D01*
X104700133Y-155967540D01*
X103181251Y-155967540D01*
X100871655Y-153657943D01*
X100884672Y-153626595D01*
X100885326Y-152876695D01*
X100598957Y-152183628D01*
X100069161Y-151652907D01*
X99376595Y-151365328D01*
X98626695Y-151364674D01*
X97933628Y-151651043D01*
X97402907Y-152180839D01*
X97115328Y-152873405D01*
X97114674Y-153623305D01*
X95556301Y-153623305D01*
X105179606Y-144000000D01*
X111464999Y-144000000D01*
X111477560Y-144063147D01*
X111477560Y-144600000D01*
X111526843Y-144847765D01*
X111667191Y-145057809D01*
X111877235Y-145198157D01*
X112125000Y-145247440D01*
X112283728Y-145247440D01*
X114602560Y-147566271D01*
X114602560Y-149250000D01*
X114651843Y-149497765D01*
X114792191Y-149707809D01*
X115002235Y-149848157D01*
X115250000Y-149897440D01*
X117750000Y-149897440D01*
X117997765Y-149848157D01*
X118207809Y-149707809D01*
X118348157Y-149497765D01*
X118397440Y-149250000D01*
X118397440Y-149035000D01*
X123752757Y-149035000D01*
X129486758Y-154769000D01*
X129251547Y-154769000D01*
X129100097Y-154667805D01*
X128704020Y-154589019D01*
X128704015Y-154589020D01*
X124547870Y-154589020D01*
X124547870Y-154049220D01*
X124498587Y-153801455D01*
X124358239Y-153591411D01*
X124148195Y-153451063D01*
X123900430Y-153401780D01*
X122099570Y-153401780D01*
X121851805Y-153451063D01*
X121641761Y-153591411D01*
X121501413Y-153801455D01*
X121452130Y-154049220D01*
X121452130Y-155933981D01*
X121413327Y-155840302D01*
X121234699Y-155661673D01*
X121001310Y-155565000D01*
X120785750Y-155565000D01*
X120627000Y-155723750D01*
X120627000Y-156673000D01*
X120647000Y-156673000D01*
X120647000Y-156927000D01*
X120627000Y-156927000D01*
X120627000Y-156947000D01*
X120373000Y-156947000D01*
X120373000Y-156927000D01*
X119648750Y-156927000D01*
X119490000Y-157085750D01*
X119490000Y-157526309D01*
X119547448Y-157665000D01*
X119325005Y-157665000D01*
X119325000Y-157664999D01*
X118976124Y-157734396D01*
X118928923Y-157743785D01*
X118593144Y-157968144D01*
X118593142Y-157968147D01*
X117981848Y-158579441D01*
X117957299Y-158542701D01*
X117747255Y-158402353D01*
X117499490Y-158353070D01*
X117399249Y-158353070D01*
X117472557Y-158154703D01*
X116500000Y-157182145D01*
X115527443Y-158154703D01*
X115600751Y-158353070D01*
X115500510Y-158353070D01*
X115252745Y-158402353D01*
X115042701Y-158542701D01*
X114902353Y-158752745D01*
X114853070Y-159000510D01*
X114853070Y-160999490D01*
X114902353Y-161247255D01*
X115042701Y-161457299D01*
X115106607Y-161500000D01*
X115042701Y-161542701D01*
X114902353Y-161752745D01*
X114853070Y-162000510D01*
X114853070Y-163999490D01*
X114902353Y-164247255D01*
X115042701Y-164457299D01*
X115252745Y-164597647D01*
X115500510Y-164646930D01*
X116683218Y-164646930D01*
X118407800Y-166371511D01*
X118252745Y-166402353D01*
X118042701Y-166542701D01*
X117902353Y-166752745D01*
X117853070Y-167000510D01*
X117853070Y-168999490D01*
X117902353Y-169247255D01*
X118042701Y-169457299D01*
X118252745Y-169597647D01*
X118500510Y-169646930D01*
X120499490Y-169646930D01*
X120747255Y-169597647D01*
X120957299Y-169457299D01*
X121097647Y-169247255D01*
X121146930Y-168999490D01*
X121146930Y-167000510D01*
X121097647Y-166752745D01*
X120957299Y-166542701D01*
X120747255Y-166402353D01*
X120535000Y-166360133D01*
X120535000Y-166000005D01*
X120535001Y-166000000D01*
X120456215Y-165603923D01*
X120310437Y-165385750D01*
X121915000Y-165385750D01*
X121915000Y-165826309D01*
X122011673Y-166059698D01*
X122190301Y-166238327D01*
X122423690Y-166335000D01*
X122714250Y-166335000D01*
X122873000Y-166176250D01*
X122873000Y-165227000D01*
X123127000Y-165227000D01*
X123127000Y-166176250D01*
X123285750Y-166335000D01*
X123576310Y-166335000D01*
X123809699Y-166238327D01*
X123988327Y-166059698D01*
X124085000Y-165826309D01*
X124085000Y-165385750D01*
X123926250Y-165227000D01*
X123127000Y-165227000D01*
X122873000Y-165227000D01*
X122073750Y-165227000D01*
X121915000Y-165385750D01*
X120310437Y-165385750D01*
X120231856Y-165268144D01*
X120231853Y-165268142D01*
X118146930Y-163183218D01*
X118146930Y-162000510D01*
X118097647Y-161752745D01*
X117957299Y-161542701D01*
X117893393Y-161500000D01*
X117957299Y-161457299D01*
X118097647Y-161247255D01*
X118144599Y-161011211D01*
X118421077Y-160956215D01*
X118756856Y-160731856D01*
X119705383Y-159783328D01*
X119877235Y-159898157D01*
X120125000Y-159947440D01*
X120875000Y-159947440D01*
X121122765Y-159898157D01*
X121332809Y-159757809D01*
X121452130Y-159579234D01*
X121452130Y-161450780D01*
X121501413Y-161698545D01*
X121641761Y-161908589D01*
X121851805Y-162048937D01*
X121948667Y-162068204D01*
X121902560Y-162300000D01*
X121902560Y-163500000D01*
X121951843Y-163747765D01*
X122092191Y-163957809D01*
X122153320Y-163998654D01*
X122011673Y-164140302D01*
X121915000Y-164373691D01*
X121915000Y-164814250D01*
X122073750Y-164973000D01*
X122873000Y-164973000D01*
X122873000Y-164953000D01*
X123127000Y-164953000D01*
X123127000Y-164973000D01*
X123926250Y-164973000D01*
X124085000Y-164814250D01*
X124085000Y-164373691D01*
X123988327Y-164140302D01*
X123846680Y-163998654D01*
X123907809Y-163957809D01*
X124048157Y-163747765D01*
X124097440Y-163500000D01*
X124097440Y-162300000D01*
X124051333Y-162068204D01*
X124148195Y-162048937D01*
X124358239Y-161908589D01*
X124498587Y-161698545D01*
X124547870Y-161450780D01*
X124547870Y-158301180D01*
X124498587Y-158053415D01*
X124358239Y-157843371D01*
X124218501Y-157750000D01*
X124358239Y-157656629D01*
X124498587Y-157446585D01*
X124547870Y-157198820D01*
X124547870Y-156659020D01*
X127605223Y-156659020D01*
X127683354Y-157051810D01*
X128041246Y-157587433D01*
X128194748Y-157690000D01*
X128041246Y-157792567D01*
X127683354Y-158328190D01*
X127557679Y-158960000D01*
X127594944Y-159147344D01*
X126642515Y-160099773D01*
X126418156Y-160435552D01*
X126339370Y-160831629D01*
X126339371Y-160831634D01*
X126339371Y-165714366D01*
X126339370Y-165714371D01*
X126418156Y-166110448D01*
X126642515Y-166446227D01*
X127928653Y-167732364D01*
X127928655Y-167732367D01*
X128025658Y-167829370D01*
X128025226Y-168323694D01*
X128273538Y-168924655D01*
X128732927Y-169384846D01*
X129333453Y-169634206D01*
X129983694Y-169634774D01*
X130584655Y-169386462D01*
X131044846Y-168927073D01*
X131294206Y-168326547D01*
X131294774Y-167676306D01*
X131046462Y-167075345D01*
X130587073Y-166615154D01*
X129986547Y-166365794D01*
X129489071Y-166365359D01*
X129392367Y-166268655D01*
X129392364Y-166268653D01*
X128409371Y-165285659D01*
X128409371Y-162913406D01*
X128576869Y-163025325D01*
X129208679Y-163151000D01*
X129791321Y-163151000D01*
X130423131Y-163025325D01*
X130958754Y-162667433D01*
X131047243Y-162535000D01*
X132032544Y-162535000D01*
X132052235Y-162548157D01*
X132300000Y-162597440D01*
X133500000Y-162597440D01*
X133747765Y-162548157D01*
X133957809Y-162407809D01*
X133998654Y-162346680D01*
X134140302Y-162488327D01*
X134373691Y-162585000D01*
X134814250Y-162585000D01*
X134973000Y-162426250D01*
X134973000Y-161627000D01*
X135227000Y-161627000D01*
X135227000Y-162426250D01*
X135385750Y-162585000D01*
X135826309Y-162585000D01*
X136059698Y-162488327D01*
X136238327Y-162309699D01*
X136266790Y-162240985D01*
X136336673Y-162409698D01*
X136515301Y-162588327D01*
X136748690Y-162685000D01*
X136964250Y-162685000D01*
X137123000Y-162526250D01*
X137123000Y-161577000D01*
X136398750Y-161577000D01*
X136262500Y-161713250D01*
X136176250Y-161627000D01*
X135227000Y-161627000D01*
X134973000Y-161627000D01*
X134953000Y-161627000D01*
X134953000Y-161373000D01*
X134973000Y-161373000D01*
X134973000Y-161353000D01*
X135227000Y-161353000D01*
X135227000Y-161373000D01*
X136176250Y-161373000D01*
X136312500Y-161236750D01*
X136398750Y-161323000D01*
X137123000Y-161323000D01*
X137123000Y-161303000D01*
X137377000Y-161303000D01*
X137377000Y-161323000D01*
X137397000Y-161323000D01*
X137397000Y-161577000D01*
X137377000Y-161577000D01*
X137377000Y-162526250D01*
X137535750Y-162685000D01*
X137751310Y-162685000D01*
X137984699Y-162588327D01*
X138012500Y-162560525D01*
X138190301Y-162738327D01*
X138423690Y-162835000D01*
X138714250Y-162835000D01*
X138873000Y-162676250D01*
X138873000Y-161727000D01*
X138853000Y-161727000D01*
X138853000Y-161473000D01*
X138873000Y-161473000D01*
X138873000Y-161453000D01*
X139127000Y-161453000D01*
X139127000Y-161473000D01*
X139147000Y-161473000D01*
X139147000Y-161727000D01*
X139127000Y-161727000D01*
X139127000Y-162676250D01*
X139285750Y-162835000D01*
X139576310Y-162835000D01*
X139809699Y-162738327D01*
X139988327Y-162559698D01*
X140085000Y-162326309D01*
X140085000Y-161948711D01*
X140202130Y-162065841D01*
X140202130Y-164200780D01*
X140251413Y-164448545D01*
X140391761Y-164658589D01*
X140601805Y-164798937D01*
X140849570Y-164848220D01*
X142650430Y-164848220D01*
X142898195Y-164798937D01*
X143108239Y-164658589D01*
X143248587Y-164448545D01*
X143297870Y-164200780D01*
X143297870Y-161051180D01*
X143248587Y-160803415D01*
X143108239Y-160593371D01*
X142968501Y-160500000D01*
X143108239Y-160406629D01*
X143248587Y-160196585D01*
X143297870Y-159948820D01*
X143297870Y-156799220D01*
X143248587Y-156551455D01*
X143108239Y-156341411D01*
X142898195Y-156201063D01*
X142650430Y-156151780D01*
X140849570Y-156151780D01*
X140601805Y-156201063D01*
X140391761Y-156341411D01*
X140251413Y-156551455D01*
X140202130Y-156799220D01*
X140202130Y-157229960D01*
X139875549Y-157164998D01*
X139875544Y-157164999D01*
X138070004Y-157164999D01*
X138069999Y-157164998D01*
X137673922Y-157243784D01*
X137338143Y-157468143D01*
X137338141Y-157468146D01*
X136518144Y-158288142D01*
X136399972Y-158465000D01*
X135967456Y-158465000D01*
X135947765Y-158451843D01*
X135700000Y-158402560D01*
X135316271Y-158402560D01*
X134431856Y-157518144D01*
X134096077Y-157293785D01*
X133700000Y-157214999D01*
X133699995Y-157215000D01*
X133535000Y-157215000D01*
X133535000Y-156318536D01*
X133535001Y-156318531D01*
X133456215Y-155922454D01*
X133401323Y-155840302D01*
X133231856Y-155586675D01*
X133231853Y-155586673D01*
X131963712Y-154318531D01*
X132731853Y-153550389D01*
X132731856Y-153550387D01*
X132932567Y-153250000D01*
X132956215Y-153214609D01*
X133035000Y-152818531D01*
X133035000Y-136587746D01*
X133070459Y-136611439D01*
X133390000Y-136675000D01*
X134980261Y-136675000D01*
X135100332Y-136854698D01*
X135482418Y-137110000D01*
X135100332Y-137365302D01*
X134789263Y-137830849D01*
X134680030Y-138380000D01*
X134789263Y-138929151D01*
X134978980Y-139213082D01*
X133909566Y-140282496D01*
X133728561Y-140553389D01*
X133665000Y-140872930D01*
X133665000Y-143010000D01*
X133728561Y-143329541D01*
X133902884Y-143590434D01*
X133909566Y-143600434D01*
X134359566Y-144050434D01*
X134630459Y-144231439D01*
X134950000Y-144295000D01*
X134980261Y-144295000D01*
X135100332Y-144474698D01*
X135482418Y-144730000D01*
X135100332Y-144985302D01*
X134789263Y-145450849D01*
X134680030Y-146000000D01*
X134789263Y-146549151D01*
X135100332Y-147014698D01*
X135482418Y-147270000D01*
X135100332Y-147525302D01*
X134789263Y-147990849D01*
X134680030Y-148540000D01*
X134789263Y-149089151D01*
X135100332Y-149554698D01*
X135565879Y-149865767D01*
X136115030Y-149975000D01*
X136884970Y-149975000D01*
X137434121Y-149865767D01*
X137899668Y-149554698D01*
X138210737Y-149089151D01*
X138319970Y-148540000D01*
X138210737Y-147990849D01*
X137899668Y-147525302D01*
X137517582Y-147270000D01*
X137869284Y-147035000D01*
X158499995Y-147035000D01*
X158500000Y-147035001D01*
X158896077Y-146956215D01*
X159231856Y-146731856D01*
X162231853Y-143731858D01*
X162231856Y-143731856D01*
X162456215Y-143396077D01*
X162460090Y-143376595D01*
X162535001Y-143000000D01*
X162535000Y-142999995D01*
X162535000Y-137000005D01*
X162535001Y-137000000D01*
X162456215Y-136603923D01*
X162391994Y-136507809D01*
X162231856Y-136268144D01*
X162231853Y-136268142D01*
X161231856Y-135268144D01*
X160896077Y-135043785D01*
X160500000Y-134964999D01*
X160103923Y-135043785D01*
X159982375Y-135125000D01*
X159117285Y-135125000D01*
X159022765Y-135061843D01*
X158775000Y-135012560D01*
X157225000Y-135012560D01*
X156977235Y-135061843D01*
X156767191Y-135202191D01*
X156626843Y-135412235D01*
X156577560Y-135660000D01*
X156577560Y-136260000D01*
X156626843Y-136507765D01*
X156685132Y-136595000D01*
X156626843Y-136682235D01*
X156577560Y-136930000D01*
X156577560Y-137530000D01*
X156626843Y-137777765D01*
X156685132Y-137865000D01*
X156626843Y-137952235D01*
X156577560Y-138200000D01*
X156577560Y-138800000D01*
X156626843Y-139047765D01*
X156679768Y-139126972D01*
X156590000Y-139343690D01*
X156590000Y-139484250D01*
X156748750Y-139643000D01*
X157873000Y-139643000D01*
X157873000Y-139623000D01*
X158127000Y-139623000D01*
X158127000Y-139643000D01*
X158147000Y-139643000D01*
X158147000Y-139897000D01*
X158127000Y-139897000D01*
X158127000Y-140546250D01*
X158285750Y-140705000D01*
X158901309Y-140705000D01*
X159134698Y-140608327D01*
X159165000Y-140578025D01*
X159165000Y-141154132D01*
X158154132Y-142165000D01*
X147452646Y-142165000D01*
X147461757Y-142151365D01*
X147511040Y-141903600D01*
X147511040Y-140603625D01*
X151480657Y-140603625D01*
X151577235Y-140668157D01*
X151825000Y-140717440D01*
X153375000Y-140717440D01*
X153622765Y-140668157D01*
X153832809Y-140527809D01*
X153973157Y-140317765D01*
X154022440Y-140070000D01*
X154022440Y-140055750D01*
X156590000Y-140055750D01*
X156590000Y-140196310D01*
X156686673Y-140429699D01*
X156865302Y-140608327D01*
X157098691Y-140705000D01*
X157714250Y-140705000D01*
X157873000Y-140546250D01*
X157873000Y-139897000D01*
X156748750Y-139897000D01*
X156590000Y-140055750D01*
X154022440Y-140055750D01*
X154022440Y-139470000D01*
X153973157Y-139222235D01*
X153914868Y-139135000D01*
X153973157Y-139047765D01*
X154022440Y-138800000D01*
X154022440Y-138200000D01*
X153973157Y-137952235D01*
X153914868Y-137865000D01*
X153973157Y-137777765D01*
X154022440Y-137530000D01*
X154022440Y-136930000D01*
X153973157Y-136682235D01*
X153914868Y-136595000D01*
X153973157Y-136507765D01*
X154022440Y-136260000D01*
X154022440Y-135708428D01*
X154708428Y-135022440D01*
X155150000Y-135022440D01*
X155397765Y-134973157D01*
X155489102Y-134912127D01*
X155490302Y-134913327D01*
X155723691Y-135010000D01*
X156164250Y-135010000D01*
X156323000Y-134851250D01*
X156323000Y-134127000D01*
X156577000Y-134127000D01*
X156577000Y-134851250D01*
X156735750Y-135010000D01*
X157176309Y-135010000D01*
X157409698Y-134913327D01*
X157588327Y-134734699D01*
X157685000Y-134501310D01*
X157685000Y-134285750D01*
X157526250Y-134127000D01*
X156577000Y-134127000D01*
X156323000Y-134127000D01*
X156303000Y-134127000D01*
X156303000Y-133873000D01*
X156323000Y-133873000D01*
X156323000Y-133148750D01*
X156577000Y-133148750D01*
X156577000Y-133873000D01*
X157526250Y-133873000D01*
X157685000Y-133714250D01*
X157685000Y-133498690D01*
X157588327Y-133265301D01*
X157409698Y-133086673D01*
X157176309Y-132990000D01*
X156735750Y-132990000D01*
X156577000Y-133148750D01*
X156323000Y-133148750D01*
X156164250Y-132990000D01*
X155723691Y-132990000D01*
X155585000Y-133047448D01*
X155585000Y-132066395D01*
X155585001Y-132066390D01*
X155506215Y-131670313D01*
X155392416Y-131500000D01*
X155281856Y-131334534D01*
X155281853Y-131334532D01*
X155030642Y-131083320D01*
X157846285Y-131083320D01*
X157975533Y-131376123D01*
X158675806Y-131644388D01*
X159425435Y-131624250D01*
X160024467Y-131376123D01*
X160153715Y-131083320D01*
X159000000Y-129929605D01*
X157846285Y-131083320D01*
X155030642Y-131083320D01*
X154576619Y-130629297D01*
X154576616Y-130629295D01*
X154479964Y-130532643D01*
X154479978Y-130516575D01*
X154292356Y-130062497D01*
X153945249Y-129714783D01*
X153491498Y-129526369D01*
X153000185Y-129525940D01*
X152546107Y-129713562D01*
X152198393Y-130060669D01*
X152009979Y-130514420D01*
X152009550Y-131005733D01*
X152197172Y-131459811D01*
X152544279Y-131807525D01*
X152998030Y-131995939D01*
X153015853Y-131995955D01*
X153112905Y-132093006D01*
X153112907Y-132093009D01*
X153515000Y-132495101D01*
X153515000Y-133151950D01*
X153492191Y-133167191D01*
X153351843Y-133377235D01*
X153302560Y-133625000D01*
X153302560Y-134066572D01*
X152356572Y-135012560D01*
X151825000Y-135012560D01*
X151686064Y-135040196D01*
X149694980Y-133049112D01*
X149698657Y-133047592D01*
X150046371Y-132700485D01*
X150234785Y-132246734D01*
X150235214Y-131755421D01*
X150047592Y-131301343D01*
X149700485Y-130953629D01*
X149246734Y-130765215D01*
X148755421Y-130764786D01*
X148301343Y-130952408D01*
X148288729Y-130965000D01*
X146928711Y-130965000D01*
X146498391Y-130534680D01*
X146500000Y-130535000D01*
X146563143Y-130522440D01*
X147100000Y-130522440D01*
X147347765Y-130473157D01*
X147439102Y-130412127D01*
X147440302Y-130413327D01*
X147673691Y-130510000D01*
X148114250Y-130510000D01*
X148273000Y-130351250D01*
X148273000Y-129627000D01*
X148527000Y-129627000D01*
X148527000Y-130351250D01*
X148685750Y-130510000D01*
X149126309Y-130510000D01*
X149359698Y-130413327D01*
X149538327Y-130234699D01*
X149635000Y-130001310D01*
X149635000Y-129785750D01*
X149476250Y-129627000D01*
X148527000Y-129627000D01*
X148273000Y-129627000D01*
X148253000Y-129627000D01*
X148253000Y-129425806D01*
X157105612Y-129425806D01*
X157125750Y-130175435D01*
X157373877Y-130774467D01*
X157666680Y-130903715D01*
X158820395Y-129750000D01*
X159179605Y-129750000D01*
X160333320Y-130903715D01*
X160626123Y-130774467D01*
X160894388Y-130074194D01*
X160874250Y-129324565D01*
X160626123Y-128725533D01*
X160333320Y-128596285D01*
X159179605Y-129750000D01*
X158820395Y-129750000D01*
X157666680Y-128596285D01*
X157373877Y-128725533D01*
X157105612Y-129425806D01*
X148253000Y-129425806D01*
X148253000Y-129373000D01*
X148273000Y-129373000D01*
X148273000Y-129353000D01*
X148527000Y-129353000D01*
X148527000Y-129373000D01*
X149476250Y-129373000D01*
X149635000Y-129214250D01*
X149635000Y-128998690D01*
X149538327Y-128765301D01*
X149359698Y-128586673D01*
X149357892Y-128585925D01*
X149547765Y-128548157D01*
X149567456Y-128535000D01*
X156249995Y-128535000D01*
X156250000Y-128535001D01*
X156646077Y-128456215D01*
X156705245Y-128416680D01*
X157846285Y-128416680D01*
X159000000Y-129570395D01*
X160153715Y-128416680D01*
X160024467Y-128123877D01*
X159324194Y-127855612D01*
X158574565Y-127875750D01*
X157975533Y-128123877D01*
X157846285Y-128416680D01*
X156705245Y-128416680D01*
X156981856Y-128231856D01*
X158592056Y-126621655D01*
X158623405Y-126634672D01*
X159373305Y-126635326D01*
X160066372Y-126348957D01*
X160179776Y-126235750D01*
X161490000Y-126235750D01*
X161490000Y-126676309D01*
X161586673Y-126909698D01*
X161765301Y-127088327D01*
X161998690Y-127185000D01*
X162214250Y-127185000D01*
X162373000Y-127026250D01*
X162373000Y-126077000D01*
X162627000Y-126077000D01*
X162627000Y-127026250D01*
X162785750Y-127185000D01*
X163001310Y-127185000D01*
X163234699Y-127088327D01*
X163413327Y-126909698D01*
X163510000Y-126676309D01*
X163510000Y-126235750D01*
X163351250Y-126077000D01*
X162627000Y-126077000D01*
X162373000Y-126077000D01*
X161648750Y-126077000D01*
X161490000Y-126235750D01*
X160179776Y-126235750D01*
X160597093Y-125819161D01*
X160884672Y-125126595D01*
X160885326Y-124376695D01*
X160598957Y-123683628D01*
X160069161Y-123152907D01*
X159376595Y-122865328D01*
X158626695Y-122864674D01*
X157933628Y-123151043D01*
X157402907Y-123680839D01*
X157115328Y-124373405D01*
X157114674Y-125123305D01*
X157128799Y-125157490D01*
X155821288Y-126465000D01*
X154031393Y-126465000D01*
X154296371Y-126200485D01*
X154484785Y-125746734D01*
X154485214Y-125255421D01*
X154394138Y-125035000D01*
X154499995Y-125035000D01*
X154500000Y-125035001D01*
X154896077Y-124956215D01*
X155231856Y-124731856D01*
X158316271Y-121647440D01*
X159433728Y-121647440D01*
X161465000Y-123678711D01*
X161465000Y-124050000D01*
X161477560Y-124113143D01*
X161477560Y-124650000D01*
X161526843Y-124897765D01*
X161587873Y-124989102D01*
X161586673Y-124990302D01*
X161490000Y-125223691D01*
X161490000Y-125664250D01*
X161648750Y-125823000D01*
X162373000Y-125823000D01*
X162373000Y-125803000D01*
X162627000Y-125803000D01*
X162627000Y-125823000D01*
X163351250Y-125823000D01*
X163510000Y-125664250D01*
X163510000Y-125223691D01*
X163413327Y-124990302D01*
X163412127Y-124989102D01*
X163473157Y-124897765D01*
X163522440Y-124650000D01*
X163522440Y-124113143D01*
X163535000Y-124050000D01*
X163535000Y-123250000D01*
X163456215Y-122853923D01*
X163456215Y-122853922D01*
X163331445Y-122667191D01*
X163231856Y-122518144D01*
X163231853Y-122518142D01*
X160897440Y-120183728D01*
X160897440Y-118500000D01*
X160848157Y-118252235D01*
X160707809Y-118042191D01*
X160497765Y-117901843D01*
X160250000Y-117852560D01*
X157750000Y-117852560D01*
X157502235Y-117901843D01*
X157292191Y-118042191D01*
X157151843Y-118252235D01*
X157102560Y-118500000D01*
X157102560Y-119933729D01*
X154071288Y-122965000D01*
X153961836Y-122965000D01*
X153950485Y-122953629D01*
X153496734Y-122765215D01*
X153048887Y-122764824D01*
X153481853Y-122331858D01*
X153481856Y-122331856D01*
X153706215Y-121996077D01*
X153730697Y-121872999D01*
X153785001Y-121600000D01*
X153785000Y-121599995D01*
X153785000Y-115178712D01*
X154130391Y-114833320D01*
X157846285Y-114833320D01*
X157975533Y-115126123D01*
X158675806Y-115394388D01*
X159425435Y-115374250D01*
X160024467Y-115126123D01*
X160153715Y-114833320D01*
X159000000Y-113679605D01*
X157846285Y-114833320D01*
X154130391Y-114833320D01*
X155787905Y-113175806D01*
X157105612Y-113175806D01*
X157125750Y-113925435D01*
X157373877Y-114524467D01*
X157666680Y-114653715D01*
X158820395Y-113500000D01*
X159179605Y-113500000D01*
X160333320Y-114653715D01*
X160626123Y-114524467D01*
X160894388Y-113824194D01*
X160874250Y-113074565D01*
X160626123Y-112475533D01*
X160333320Y-112346285D01*
X159179605Y-113500000D01*
X158820395Y-113500000D01*
X157666680Y-112346285D01*
X157373877Y-112475533D01*
X157105612Y-113175806D01*
X155787905Y-113175806D01*
X156797031Y-112166680D01*
X157846285Y-112166680D01*
X159000000Y-113320395D01*
X160153715Y-112166680D01*
X160024467Y-111873877D01*
X159324194Y-111605612D01*
X158574565Y-111625750D01*
X157975533Y-111873877D01*
X157846285Y-112166680D01*
X156797031Y-112166680D01*
X158592056Y-110371655D01*
X158623405Y-110384672D01*
X159373305Y-110385326D01*
X160066372Y-110098957D01*
X160430213Y-109735750D01*
X161490000Y-109735750D01*
X161490000Y-110176309D01*
X161586673Y-110409698D01*
X161765301Y-110588327D01*
X161998690Y-110685000D01*
X162214250Y-110685000D01*
X162373000Y-110526250D01*
X162373000Y-109577000D01*
X162627000Y-109577000D01*
X162627000Y-110526250D01*
X162785750Y-110685000D01*
X163001310Y-110685000D01*
X163234699Y-110588327D01*
X163413327Y-110409698D01*
X163510000Y-110176309D01*
X163510000Y-109735750D01*
X163351250Y-109577000D01*
X162627000Y-109577000D01*
X162373000Y-109577000D01*
X161648750Y-109577000D01*
X161490000Y-109735750D01*
X160430213Y-109735750D01*
X160597093Y-109569161D01*
X160884672Y-108876595D01*
X160885326Y-108126695D01*
X160598957Y-107433628D01*
X160069161Y-106902907D01*
X159376595Y-106615328D01*
X158626695Y-106614674D01*
X157933628Y-106901043D01*
X157402907Y-107430839D01*
X157115328Y-108123405D01*
X157114674Y-108873305D01*
X157128799Y-108907490D01*
X154352371Y-111683917D01*
X154297592Y-111551343D01*
X154285000Y-111538729D01*
X154285000Y-107628712D01*
X157112706Y-104801006D01*
X157151843Y-104997765D01*
X157292191Y-105207809D01*
X157502235Y-105348157D01*
X157750000Y-105397440D01*
X159433728Y-105397440D01*
X161465000Y-107428711D01*
X161465000Y-107550000D01*
X161477560Y-107613143D01*
X161477560Y-108150000D01*
X161526843Y-108397765D01*
X161587873Y-108489102D01*
X161586673Y-108490302D01*
X161490000Y-108723691D01*
X161490000Y-109164250D01*
X161648750Y-109323000D01*
X162373000Y-109323000D01*
X162373000Y-109303000D01*
X162627000Y-109303000D01*
X162627000Y-109323000D01*
X163351250Y-109323000D01*
X163510000Y-109164250D01*
X163510000Y-108723691D01*
X163413327Y-108490302D01*
X163412127Y-108489102D01*
X163473157Y-108397765D01*
X163522440Y-108150000D01*
X163522440Y-107613143D01*
X163535000Y-107550000D01*
X163535000Y-107000000D01*
X163475771Y-106702235D01*
X163456215Y-106603922D01*
X163353935Y-106450849D01*
X163231856Y-106268144D01*
X163231853Y-106268142D01*
X160897440Y-103933728D01*
X160897440Y-102250000D01*
X160848157Y-102002235D01*
X160707809Y-101792191D01*
X160497765Y-101651843D01*
X160250000Y-101602560D01*
X157750000Y-101602560D01*
X157502235Y-101651843D01*
X157292191Y-101792191D01*
X157151843Y-102002235D01*
X157102560Y-102250000D01*
X157102560Y-102465000D01*
X156950005Y-102465000D01*
X156950000Y-102464999D01*
X156553922Y-102543785D01*
X156419429Y-102633651D01*
X156218144Y-102768144D01*
X156218142Y-102768147D01*
X152518144Y-106468144D01*
X152293785Y-106803923D01*
X152214999Y-107200000D01*
X152215000Y-107200005D01*
X152215000Y-111538164D01*
X152203629Y-111549515D01*
X152015215Y-112003266D01*
X152014786Y-112494579D01*
X152202408Y-112948657D01*
X152549515Y-113296371D01*
X152684052Y-113352236D01*
X152018144Y-114018144D01*
X151793785Y-114353923D01*
X151714999Y-114750000D01*
X151715000Y-114750005D01*
X151715000Y-121171289D01*
X149513290Y-123372998D01*
X149476252Y-123372998D01*
X149635000Y-123214250D01*
X149635000Y-122998690D01*
X149538327Y-122765301D01*
X149359698Y-122586673D01*
X149126309Y-122490000D01*
X148685750Y-122490000D01*
X148527000Y-122648750D01*
X148527000Y-123373000D01*
X148547000Y-123373000D01*
X148547000Y-123627000D01*
X148527000Y-123627000D01*
X148527000Y-123647000D01*
X148273000Y-123647000D01*
X148273000Y-123627000D01*
X148253000Y-123627000D01*
X148253000Y-123373000D01*
X148273000Y-123373000D01*
X148273000Y-122648750D01*
X148114250Y-122490000D01*
X147673691Y-122490000D01*
X147440302Y-122586673D01*
X147439102Y-122587873D01*
X147347765Y-122526843D01*
X147100000Y-122477560D01*
X146563143Y-122477560D01*
X146500000Y-122465000D01*
X146436857Y-122477560D01*
X145900000Y-122477560D01*
X145652235Y-122526843D01*
X145535000Y-122605178D01*
X145535000Y-115446580D01*
X145490103Y-115220869D01*
X145456215Y-115050502D01*
X145362044Y-114909566D01*
X145231856Y-114714724D01*
X145231853Y-114714722D01*
X141302020Y-110784888D01*
X141302017Y-110784886D01*
X141205365Y-110688234D01*
X141205379Y-110672166D01*
X141017757Y-110218088D01*
X140934305Y-110134490D01*
X141716790Y-110134490D01*
X141875540Y-109975740D01*
X141875540Y-108627000D01*
X142129540Y-108627000D01*
X142129540Y-109975740D01*
X142288290Y-110134490D01*
X143128340Y-110134490D01*
X143361729Y-110037817D01*
X143540357Y-109859188D01*
X143637030Y-109625799D01*
X143637030Y-108785750D01*
X143478280Y-108627000D01*
X142129540Y-108627000D01*
X141875540Y-108627000D01*
X140526800Y-108627000D01*
X140368050Y-108785750D01*
X140368050Y-109625799D01*
X140427543Y-109769427D01*
X140216899Y-109681960D01*
X139725586Y-109681531D01*
X139271508Y-109869153D01*
X138923794Y-110216260D01*
X138735380Y-110670011D01*
X138734951Y-111161324D01*
X138922573Y-111615402D01*
X139269680Y-111963116D01*
X139723431Y-112151530D01*
X139741254Y-112151546D01*
X139838306Y-112248597D01*
X139838308Y-112248600D01*
X143465000Y-115875291D01*
X143465000Y-117919274D01*
X143389002Y-117735345D01*
X142929613Y-117275154D01*
X142329087Y-117025794D01*
X141678846Y-117025226D01*
X141077885Y-117273538D01*
X140617694Y-117732927D01*
X140368334Y-118333453D01*
X140367766Y-118983694D01*
X140616078Y-119584655D01*
X140770063Y-119738908D01*
X140752745Y-119742353D01*
X140542701Y-119882701D01*
X140402353Y-120092745D01*
X140353070Y-120340510D01*
X140353070Y-122339490D01*
X140402353Y-122587255D01*
X140542701Y-122797299D01*
X140752745Y-122937647D01*
X141000510Y-122986930D01*
X142999490Y-122986930D01*
X143247255Y-122937647D01*
X143457299Y-122797299D01*
X143465000Y-122785774D01*
X143465000Y-123288164D01*
X143453629Y-123299515D01*
X143265215Y-123753266D01*
X143264786Y-124244579D01*
X143430237Y-124645000D01*
X137869284Y-124645000D01*
X137517582Y-124410000D01*
X137899668Y-124154698D01*
X138210737Y-123689151D01*
X138319970Y-123140000D01*
X138210737Y-122590849D01*
X137899668Y-122125302D01*
X137517582Y-121870000D01*
X137899668Y-121614698D01*
X138210737Y-121149151D01*
X138319970Y-120600000D01*
X138210737Y-120050849D01*
X137899668Y-119585302D01*
X137517582Y-119330000D01*
X137899668Y-119074698D01*
X138210737Y-118609151D01*
X138319970Y-118060000D01*
X138210737Y-117510849D01*
X137899668Y-117045302D01*
X137517582Y-116790000D01*
X137899668Y-116534698D01*
X138210737Y-116069151D01*
X138319970Y-115520000D01*
X138210737Y-114970849D01*
X137899668Y-114505302D01*
X137434121Y-114194233D01*
X136884970Y-114085000D01*
X136115030Y-114085000D01*
X135932229Y-114121361D01*
X135785000Y-113974132D01*
X135785000Y-113970000D01*
X135721440Y-113650460D01*
X135540434Y-113379566D01*
X131070434Y-108909566D01*
X131021089Y-108876595D01*
X130799541Y-108728561D01*
X130480000Y-108665000D01*
X123206459Y-108665000D01*
X123157809Y-108592191D01*
X122947765Y-108451843D01*
X122700000Y-108402560D01*
X121500000Y-108402560D01*
X121252235Y-108451843D01*
X121042191Y-108592191D01*
X121000000Y-108655334D01*
X120957809Y-108592191D01*
X120747765Y-108451843D01*
X120500000Y-108402560D01*
X119300000Y-108402560D01*
X119052235Y-108451843D01*
X118842191Y-108592191D01*
X118766814Y-108705000D01*
X117519739Y-108705000D01*
X117399668Y-108525302D01*
X117021849Y-108272851D01*
X117454500Y-107924896D01*
X117724367Y-107431819D01*
X117736573Y-107374201D01*
X140368050Y-107374201D01*
X140368050Y-108214250D01*
X140526800Y-108373000D01*
X141875540Y-108373000D01*
X141875540Y-107024260D01*
X142129540Y-107024260D01*
X142129540Y-108373000D01*
X143478280Y-108373000D01*
X143637030Y-108214250D01*
X143637030Y-107374201D01*
X143540357Y-107140812D01*
X143361729Y-106962183D01*
X143128340Y-106865510D01*
X142288290Y-106865510D01*
X142129540Y-107024260D01*
X141875540Y-107024260D01*
X141716790Y-106865510D01*
X140876740Y-106865510D01*
X140643351Y-106962183D01*
X140464723Y-107140812D01*
X140368050Y-107374201D01*
X117736573Y-107374201D01*
X117741904Y-107349039D01*
X117619915Y-107127000D01*
X116127000Y-107127000D01*
X116127000Y-107147000D01*
X115873000Y-107147000D01*
X115873000Y-107127000D01*
X114380085Y-107127000D01*
X114258096Y-107349039D01*
X114275633Y-107431819D01*
X114545500Y-107924896D01*
X114978151Y-108272851D01*
X114600332Y-108525302D01*
X114289263Y-108990849D01*
X114180030Y-109540000D01*
X114289263Y-110089151D01*
X114600332Y-110554698D01*
X115065879Y-110865767D01*
X115615030Y-110975000D01*
X116384970Y-110975000D01*
X116934121Y-110865767D01*
X117399668Y-110554698D01*
X117519739Y-110375000D01*
X118820269Y-110375000D01*
X118842191Y-110407809D01*
X119052235Y-110548157D01*
X119300000Y-110597440D01*
X120500000Y-110597440D01*
X120747765Y-110548157D01*
X120957809Y-110407809D01*
X121000000Y-110344666D01*
X121042191Y-110407809D01*
X121252235Y-110548157D01*
X121500000Y-110597440D01*
X122700000Y-110597440D01*
X122947765Y-110548157D01*
X123157809Y-110407809D01*
X123206459Y-110335000D01*
X125011287Y-110335000D01*
X121334012Y-114012274D01*
X121109653Y-114348053D01*
X121030867Y-114744130D01*
X121030868Y-114744135D01*
X121030868Y-116255865D01*
X121030867Y-116255870D01*
X121109653Y-116651947D01*
X121334012Y-116987726D01*
X122578140Y-118231853D01*
X122578142Y-118231856D01*
X122811062Y-118387487D01*
X122765000Y-118498690D01*
X122765000Y-118714250D01*
X122923750Y-118873000D01*
X123873000Y-118873000D01*
X123873000Y-118853000D01*
X124127000Y-118853000D01*
X124127000Y-118873000D01*
X124147000Y-118873000D01*
X124147000Y-119127000D01*
X124127000Y-119127000D01*
X124127000Y-119851250D01*
X124285750Y-120010000D01*
X124726309Y-120010000D01*
X124959698Y-119913327D01*
X124960898Y-119912127D01*
X125052235Y-119973157D01*
X125300000Y-120022440D01*
X125836857Y-120022440D01*
X125900000Y-120035000D01*
X125963143Y-120022440D01*
X126500000Y-120022440D01*
X126747765Y-119973157D01*
X126957809Y-119832809D01*
X127098157Y-119622765D01*
X127147440Y-119375000D01*
X127147440Y-118625000D01*
X127098157Y-118377235D01*
X126957809Y-118167191D01*
X126935000Y-118151950D01*
X126935000Y-117825000D01*
X126856215Y-117428923D01*
X126856215Y-117428922D01*
X126811720Y-117362330D01*
X126956215Y-117146077D01*
X126966744Y-117093144D01*
X127035001Y-116750000D01*
X127035000Y-116749995D01*
X127035000Y-116423050D01*
X127057809Y-116407809D01*
X127093095Y-116355000D01*
X127360261Y-116355000D01*
X127480332Y-116534698D01*
X127862418Y-116790000D01*
X127480332Y-117045302D01*
X127169263Y-117510849D01*
X127060030Y-118060000D01*
X127169263Y-118609151D01*
X127480332Y-119074698D01*
X127862418Y-119330000D01*
X127480332Y-119585302D01*
X127169263Y-120050849D01*
X127060030Y-120600000D01*
X127169263Y-121149151D01*
X127480332Y-121614698D01*
X127862418Y-121870000D01*
X127480332Y-122125302D01*
X127169263Y-122590849D01*
X127060030Y-123140000D01*
X127061068Y-123145220D01*
X124768144Y-125438144D01*
X124543785Y-125773923D01*
X124464999Y-126170000D01*
X124465000Y-126170005D01*
X124465000Y-126865000D01*
X118300102Y-126865000D01*
X118019668Y-126445302D01*
X117554121Y-126134233D01*
X117004970Y-126025000D01*
X116235030Y-126025000D01*
X115685879Y-126134233D01*
X115220332Y-126445302D01*
X114909263Y-126910849D01*
X114800030Y-127460000D01*
X114909263Y-128009151D01*
X115220332Y-128474698D01*
X115598151Y-128727149D01*
X115165500Y-129075104D01*
X114895633Y-129568181D01*
X114878096Y-129650961D01*
X115000085Y-129873000D01*
X116493000Y-129873000D01*
X116493000Y-129853000D01*
X116747000Y-129853000D01*
X116747000Y-129873000D01*
X118239915Y-129873000D01*
X118361904Y-129650961D01*
X118344367Y-129568181D01*
X118074500Y-129075104D01*
X117900293Y-128935000D01*
X124576950Y-128935000D01*
X124592191Y-128957809D01*
X124655334Y-129000000D01*
X124592191Y-129042191D01*
X124451843Y-129252235D01*
X124402560Y-129500000D01*
X124402560Y-130700000D01*
X124451843Y-130947765D01*
X124592191Y-131157809D01*
X124802235Y-131298157D01*
X125050000Y-131347440D01*
X125950000Y-131347440D01*
X126197765Y-131298157D01*
X126407809Y-131157809D01*
X126423050Y-131135000D01*
X127134622Y-131135000D01*
X127169263Y-131309151D01*
X127480332Y-131774698D01*
X127858151Y-132027149D01*
X127425500Y-132375104D01*
X127155633Y-132868181D01*
X127138096Y-132950961D01*
X127260085Y-133173000D01*
X128753000Y-133173000D01*
X128753000Y-133153000D01*
X129007000Y-133153000D01*
X129007000Y-133173000D01*
X130499915Y-133173000D01*
X130621904Y-132950961D01*
X130604367Y-132868181D01*
X130580018Y-132823691D01*
X130990000Y-132823691D01*
X130990000Y-133264250D01*
X131148750Y-133423000D01*
X131873000Y-133423000D01*
X131873000Y-132473750D01*
X131714250Y-132315000D01*
X131498690Y-132315000D01*
X131265301Y-132411673D01*
X131086673Y-132590302D01*
X130990000Y-132823691D01*
X130580018Y-132823691D01*
X130334500Y-132375104D01*
X129901849Y-132027149D01*
X130249284Y-131795000D01*
X131921456Y-131795000D01*
X131951843Y-131947765D01*
X132092191Y-132157809D01*
X132302235Y-132298157D01*
X132386911Y-132315000D01*
X132285750Y-132315000D01*
X132127000Y-132473750D01*
X132127000Y-133423000D01*
X132147000Y-133423000D01*
X132147000Y-133677000D01*
X132127000Y-133677000D01*
X132127000Y-133697000D01*
X131873000Y-133697000D01*
X131873000Y-133677000D01*
X131148750Y-133677000D01*
X130990000Y-133835750D01*
X130990000Y-134276309D01*
X131086673Y-134509698D01*
X131087873Y-134510898D01*
X131026843Y-134602235D01*
X130977560Y-134850000D01*
X130977560Y-135386857D01*
X130965000Y-135450000D01*
X130965000Y-152389820D01*
X130500000Y-152854820D01*
X124913325Y-147268144D01*
X124577546Y-147043785D01*
X124181469Y-146964999D01*
X124181464Y-146965000D01*
X118397440Y-146965000D01*
X118397440Y-146750000D01*
X118348157Y-146502235D01*
X118207809Y-146292191D01*
X117997765Y-146151843D01*
X117750000Y-146102560D01*
X116066271Y-146102560D01*
X113522440Y-143558728D01*
X113522440Y-143400000D01*
X113517131Y-143373305D01*
X114614674Y-143373305D01*
X114901043Y-144066372D01*
X115430839Y-144597093D01*
X116123405Y-144884672D01*
X116873305Y-144885326D01*
X117566372Y-144598957D01*
X118097093Y-144069161D01*
X118111278Y-144035000D01*
X118499995Y-144035000D01*
X118500000Y-144035001D01*
X118896077Y-143956215D01*
X119231856Y-143731856D01*
X119677961Y-143285750D01*
X121865000Y-143285750D01*
X121865000Y-143501310D01*
X121961673Y-143734699D01*
X122140302Y-143913327D01*
X122373691Y-144010000D01*
X122814250Y-144010000D01*
X122973000Y-143851250D01*
X122973000Y-143127000D01*
X122023750Y-143127000D01*
X121865000Y-143285750D01*
X119677961Y-143285750D01*
X120928711Y-142035000D01*
X121932544Y-142035000D01*
X121952235Y-142048157D01*
X122142108Y-142085925D01*
X122140302Y-142086673D01*
X121961673Y-142265301D01*
X121865000Y-142498690D01*
X121865000Y-142714250D01*
X122023750Y-142873000D01*
X122973000Y-142873000D01*
X122973000Y-142853000D01*
X123227000Y-142853000D01*
X123227000Y-142873000D01*
X123247000Y-142873000D01*
X123247000Y-143127000D01*
X123227000Y-143127000D01*
X123227000Y-143851250D01*
X123385750Y-144010000D01*
X123826309Y-144010000D01*
X124059698Y-143913327D01*
X124060898Y-143912127D01*
X124152235Y-143973157D01*
X124400000Y-144022440D01*
X124936857Y-144022440D01*
X125000000Y-144035000D01*
X125063143Y-144022440D01*
X125600000Y-144022440D01*
X125847765Y-143973157D01*
X126057809Y-143832809D01*
X126198157Y-143622765D01*
X126247440Y-143375000D01*
X126247440Y-142625000D01*
X126198157Y-142377235D01*
X126057809Y-142167191D01*
X126035000Y-142151950D01*
X126035000Y-142035000D01*
X127630444Y-142035000D01*
X127862418Y-142190000D01*
X127480332Y-142445302D01*
X127169263Y-142910849D01*
X127060030Y-143460000D01*
X127169263Y-144009151D01*
X127480332Y-144474698D01*
X127862418Y-144730000D01*
X127480332Y-144985302D01*
X127169263Y-145450849D01*
X127060030Y-146000000D01*
X127169263Y-146549151D01*
X127480332Y-147014698D01*
X127862418Y-147270000D01*
X127480332Y-147525302D01*
X127169263Y-147990849D01*
X127060030Y-148540000D01*
X127169263Y-149089151D01*
X127480332Y-149554698D01*
X127945879Y-149865767D01*
X128495030Y-149975000D01*
X129264970Y-149975000D01*
X129814121Y-149865767D01*
X130279668Y-149554698D01*
X130590737Y-149089151D01*
X130699970Y-148540000D01*
X130590737Y-147990849D01*
X130279668Y-147525302D01*
X129897582Y-147270000D01*
X130279668Y-147014698D01*
X130590737Y-146549151D01*
X130699970Y-146000000D01*
X130590737Y-145450849D01*
X130279668Y-144985302D01*
X129897582Y-144730000D01*
X130279668Y-144474698D01*
X130590737Y-144009151D01*
X130699970Y-143460000D01*
X130590737Y-142910849D01*
X130279668Y-142445302D01*
X129897582Y-142190000D01*
X130279668Y-141934698D01*
X130590737Y-141469151D01*
X130699970Y-140920000D01*
X130590737Y-140370849D01*
X130279668Y-139905302D01*
X129897582Y-139650000D01*
X130279668Y-139394698D01*
X130590737Y-138929151D01*
X130699970Y-138380000D01*
X130590737Y-137830849D01*
X130279668Y-137365302D01*
X129897582Y-137110000D01*
X130279668Y-136854698D01*
X130590737Y-136389151D01*
X130699970Y-135840000D01*
X130590737Y-135290849D01*
X130279668Y-134825302D01*
X129901849Y-134572851D01*
X130334500Y-134224896D01*
X130604367Y-133731819D01*
X130621904Y-133649039D01*
X130499915Y-133427000D01*
X129007000Y-133427000D01*
X129007000Y-133447000D01*
X128753000Y-133447000D01*
X128753000Y-133427000D01*
X127260085Y-133427000D01*
X127138096Y-133649039D01*
X127155633Y-133731819D01*
X127425500Y-134224896D01*
X127858151Y-134572851D01*
X127480332Y-134825302D01*
X127169263Y-135290849D01*
X127060030Y-135840000D01*
X127169263Y-136389151D01*
X127480332Y-136854698D01*
X127862418Y-137110000D01*
X127480332Y-137365302D01*
X127169263Y-137830849D01*
X127060030Y-138380000D01*
X127169263Y-138929151D01*
X127480332Y-139394698D01*
X127862418Y-139650000D01*
X127480332Y-139905302D01*
X127440443Y-139965000D01*
X125867456Y-139965000D01*
X125847765Y-139951843D01*
X125600000Y-139902560D01*
X124400000Y-139902560D01*
X124152235Y-139951843D01*
X123942191Y-140092191D01*
X123900000Y-140155334D01*
X123857809Y-140092191D01*
X123647765Y-139951843D01*
X123400000Y-139902560D01*
X122200000Y-139902560D01*
X121952235Y-139951843D01*
X121932544Y-139965000D01*
X120500005Y-139965000D01*
X120500000Y-139964999D01*
X120133358Y-140037930D01*
X120103923Y-140043785D01*
X119768144Y-140268144D01*
X119768142Y-140268147D01*
X118100040Y-141936248D01*
X118098957Y-141933628D01*
X117569161Y-141402907D01*
X116876595Y-141115328D01*
X116126695Y-141114674D01*
X115433628Y-141401043D01*
X114902907Y-141930839D01*
X114615328Y-142623405D01*
X114614674Y-143373305D01*
X113517131Y-143373305D01*
X113473157Y-143152235D01*
X113412127Y-143060898D01*
X113413327Y-143059698D01*
X113510000Y-142826309D01*
X113510000Y-142385750D01*
X113351250Y-142227000D01*
X112627000Y-142227000D01*
X112627000Y-142247000D01*
X112373000Y-142247000D01*
X112373000Y-142227000D01*
X111648750Y-142227000D01*
X111490000Y-142385750D01*
X111490000Y-142826309D01*
X111586673Y-143059698D01*
X111587873Y-143060898D01*
X111526843Y-143152235D01*
X111477560Y-143400000D01*
X111477560Y-143936853D01*
X111464999Y-144000000D01*
X105179606Y-144000000D01*
X107805915Y-141373691D01*
X111490000Y-141373691D01*
X111490000Y-141814250D01*
X111648750Y-141973000D01*
X112373000Y-141973000D01*
X112373000Y-141023750D01*
X112627000Y-141023750D01*
X112627000Y-141973000D01*
X113351250Y-141973000D01*
X113510000Y-141814250D01*
X113510000Y-141373691D01*
X113413327Y-141140302D01*
X113234699Y-140961673D01*
X113001310Y-140865000D01*
X112785750Y-140865000D01*
X112627000Y-141023750D01*
X112373000Y-141023750D01*
X112214250Y-140865000D01*
X111998690Y-140865000D01*
X111765301Y-140961673D01*
X111586673Y-141140302D01*
X111490000Y-141373691D01*
X107805915Y-141373691D01*
X109846286Y-139333320D01*
X115346285Y-139333320D01*
X115475533Y-139626123D01*
X116175806Y-139894388D01*
X116925435Y-139874250D01*
X117524467Y-139626123D01*
X117653715Y-139333320D01*
X116500000Y-138179605D01*
X115346285Y-139333320D01*
X109846286Y-139333320D01*
X111503800Y-137675806D01*
X114605612Y-137675806D01*
X114625750Y-138425435D01*
X114873877Y-139024467D01*
X115166680Y-139153715D01*
X116320395Y-138000000D01*
X116679605Y-138000000D01*
X117833320Y-139153715D01*
X118126123Y-139024467D01*
X118394388Y-138324194D01*
X118374250Y-137574565D01*
X118126123Y-136975533D01*
X117833320Y-136846285D01*
X116679605Y-138000000D01*
X116320395Y-138000000D01*
X115166680Y-136846285D01*
X114873877Y-136975533D01*
X114605612Y-137675806D01*
X111503800Y-137675806D01*
X112512926Y-136666680D01*
X115346285Y-136666680D01*
X116500000Y-137820395D01*
X117653715Y-136666680D01*
X117524467Y-136373877D01*
X116824194Y-136105612D01*
X116074565Y-136125750D01*
X115475533Y-136373877D01*
X115346285Y-136666680D01*
X112512926Y-136666680D01*
X114589803Y-134589803D01*
X114617333Y-134548601D01*
X114627000Y-134500000D01*
X114627000Y-130349039D01*
X114878096Y-130349039D01*
X114895633Y-130431819D01*
X115165500Y-130924896D01*
X115603517Y-131277166D01*
X116143000Y-131435000D01*
X116493000Y-131435000D01*
X116493000Y-130127000D01*
X116747000Y-130127000D01*
X116747000Y-131435000D01*
X117097000Y-131435000D01*
X117636483Y-131277166D01*
X118074500Y-130924896D01*
X118344367Y-130431819D01*
X118361904Y-130349039D01*
X118239915Y-130127000D01*
X116747000Y-130127000D01*
X116493000Y-130127000D01*
X115000085Y-130127000D01*
X114878096Y-130349039D01*
X114627000Y-130349039D01*
X114627000Y-119285750D01*
X122765000Y-119285750D01*
X122765000Y-119501310D01*
X122861673Y-119734699D01*
X123040302Y-119913327D01*
X123273691Y-120010000D01*
X123714250Y-120010000D01*
X123873000Y-119851250D01*
X123873000Y-119127000D01*
X122923750Y-119127000D01*
X122765000Y-119285750D01*
X114627000Y-119285750D01*
X114627000Y-114500000D01*
X114617333Y-114451399D01*
X114589803Y-114410197D01*
X113627000Y-113447394D01*
X113627000Y-106650961D01*
X114258096Y-106650961D01*
X114380085Y-106873000D01*
X115873000Y-106873000D01*
X115873000Y-105565000D01*
X116127000Y-105565000D01*
X116127000Y-106873000D01*
X117619915Y-106873000D01*
X117741904Y-106650961D01*
X117724367Y-106568181D01*
X117454500Y-106075104D01*
X117016483Y-105722834D01*
X116477000Y-105565000D01*
X116127000Y-105565000D01*
X115873000Y-105565000D01*
X115523000Y-105565000D01*
X114983517Y-105722834D01*
X114545500Y-106075104D01*
X114275633Y-106568181D01*
X114258096Y-106650961D01*
X113627000Y-106650961D01*
X113627000Y-100710000D01*
X164290000Y-100710000D01*
X164290000Y-174290000D01*
X164290000Y-174290000D01*
G37*
X164290000Y-174290000D02*
X94127000Y-174290000D01*
X94127000Y-155052606D01*
X95556301Y-153623305D01*
X97114674Y-153623305D01*
X97401043Y-154316372D01*
X97930839Y-154847093D01*
X98623405Y-155134672D01*
X99373305Y-155135326D01*
X99407490Y-155121201D01*
X102020682Y-157734393D01*
X102020684Y-157734396D01*
X102356463Y-157958755D01*
X102752540Y-158037541D01*
X102752545Y-158037540D01*
X104700133Y-158037540D01*
X104742353Y-158249795D01*
X104882701Y-158459839D01*
X105092745Y-158600187D01*
X105305000Y-158642407D01*
X105305000Y-158723691D01*
X104955154Y-159072927D01*
X104705794Y-159673453D01*
X104705226Y-160323694D01*
X104953538Y-160924655D01*
X105412927Y-161384846D01*
X105690189Y-161499975D01*
X105415345Y-161613538D01*
X105063269Y-161965000D01*
X100380710Y-161965000D01*
X100069161Y-161652907D01*
X99376595Y-161365328D01*
X98626695Y-161364674D01*
X97933628Y-161651043D01*
X97402907Y-162180839D01*
X97115328Y-162873405D01*
X97114674Y-163623305D01*
X97401043Y-164316372D01*
X97930839Y-164847093D01*
X98623405Y-165134672D01*
X99373305Y-165135326D01*
X100066372Y-164848957D01*
X100597093Y-164319161D01*
X100715087Y-164035000D01*
X105063691Y-164035000D01*
X105412927Y-164384846D01*
X106013453Y-164634206D01*
X106663694Y-164634774D01*
X107264655Y-164386462D01*
X107724846Y-163927073D01*
X107974206Y-163326547D01*
X107974432Y-163067805D01*
X109731853Y-161310383D01*
X109731856Y-161310381D01*
X109956215Y-160974602D01*
X109977382Y-160868190D01*
X110035001Y-160578525D01*
X110035000Y-160578520D01*
X110035000Y-156738122D01*
X114854599Y-156738122D01*
X114878659Y-157387917D01*
X115081035Y-157876498D01*
X115347837Y-157975097D01*
X116320395Y-157002540D01*
X116679605Y-157002540D01*
X117652163Y-157975097D01*
X117918965Y-157876498D01*
X118145401Y-157266958D01*
X118121341Y-156617163D01*
X117918965Y-156128582D01*
X117770434Y-156073691D01*
X119490000Y-156073691D01*
X119490000Y-156514250D01*
X119648750Y-156673000D01*
X120373000Y-156673000D01*
X120373000Y-155723750D01*
X120214250Y-155565000D01*
X119998690Y-155565000D01*
X119765301Y-155661673D01*
X119586673Y-155840302D01*
X119490000Y-156073691D01*
X117770434Y-156073691D01*
X117652163Y-156029983D01*
X116679605Y-157002540D01*
X116320395Y-157002540D01*
X115347837Y-156029983D01*
X115081035Y-156128582D01*
X114854599Y-156738122D01*
X110035000Y-156738122D01*
X110035000Y-156212020D01*
X110035001Y-156212015D01*
X109956215Y-155815938D01*
X109843288Y-155646930D01*
X109731856Y-155480159D01*
X109731853Y-155480157D01*
X109403860Y-155152163D01*
X115527443Y-155152163D01*
X115626042Y-155418965D01*
X115835550Y-155496794D01*
X115626042Y-155583575D01*
X115527443Y-155850377D01*
X116500000Y-156822935D01*
X117472557Y-155850377D01*
X117373958Y-155583575D01*
X117164450Y-155505746D01*
X117373958Y-155418965D01*
X117472557Y-155152163D01*
X116500000Y-154179605D01*
X115527443Y-155152163D01*
X109403860Y-155152163D01*
X107987279Y-153735582D01*
X114854599Y-153735582D01*
X114878659Y-154385377D01*
X115081035Y-154873958D01*
X115347837Y-154972557D01*
X116320395Y-154000000D01*
X116679605Y-154000000D01*
X117652163Y-154972557D01*
X117918965Y-154873958D01*
X118145401Y-154264418D01*
X118121341Y-153614623D01*
X117918965Y-153126042D01*
X117652163Y-153027443D01*
X116679605Y-154000000D01*
X116320395Y-154000000D01*
X115347837Y-153027443D01*
X115081035Y-153126042D01*
X114854599Y-153735582D01*
X107987279Y-153735582D01*
X107986930Y-153735233D01*
X107986930Y-153000510D01*
X107956562Y-152847837D01*
X115527443Y-152847837D01*
X116500000Y-153820395D01*
X117472557Y-152847837D01*
X117373958Y-152581035D01*
X116764418Y-152354599D01*
X116114623Y-152378659D01*
X115626042Y-152581035D01*
X115527443Y-152847837D01*
X107956562Y-152847837D01*
X107937647Y-152752745D01*
X107797299Y-152542701D01*
X107587255Y-152402353D01*
X107339490Y-152353070D01*
X105340510Y-152353070D01*
X105092745Y-152402353D01*
X104882701Y-152542701D01*
X104742353Y-152752745D01*
X104693070Y-153000510D01*
X104693070Y-154999490D01*
X104742353Y-155247255D01*
X104882701Y-155457299D01*
X104948508Y-155501270D01*
X104882701Y-155545241D01*
X104742353Y-155755285D01*
X104700133Y-155967540D01*
X103181251Y-155967540D01*
X100871655Y-153657943D01*
X100884672Y-153626595D01*
X100885326Y-152876695D01*
X100598957Y-152183628D01*
X100069161Y-151652907D01*
X99376595Y-151365328D01*
X98626695Y-151364674D01*
X97933628Y-151651043D01*
X97402907Y-152180839D01*
X97115328Y-152873405D01*
X97114674Y-153623305D01*
X95556301Y-153623305D01*
X105179606Y-144000000D01*
X111464999Y-144000000D01*
X111477560Y-144063147D01*
X111477560Y-144600000D01*
X111526843Y-144847765D01*
X111667191Y-145057809D01*
X111877235Y-145198157D01*
X112125000Y-145247440D01*
X112283728Y-145247440D01*
X114602560Y-147566271D01*
X114602560Y-149250000D01*
X114651843Y-149497765D01*
X114792191Y-149707809D01*
X115002235Y-149848157D01*
X115250000Y-149897440D01*
X117750000Y-149897440D01*
X117997765Y-149848157D01*
X118207809Y-149707809D01*
X118348157Y-149497765D01*
X118397440Y-149250000D01*
X118397440Y-149035000D01*
X123752757Y-149035000D01*
X129486758Y-154769000D01*
X129251547Y-154769000D01*
X129100097Y-154667805D01*
X128704020Y-154589019D01*
X128704015Y-154589020D01*
X124547870Y-154589020D01*
X124547870Y-154049220D01*
X124498587Y-153801455D01*
X124358239Y-153591411D01*
X124148195Y-153451063D01*
X123900430Y-153401780D01*
X122099570Y-153401780D01*
X121851805Y-153451063D01*
X121641761Y-153591411D01*
X121501413Y-153801455D01*
X121452130Y-154049220D01*
X121452130Y-155933981D01*
X121413327Y-155840302D01*
X121234699Y-155661673D01*
X121001310Y-155565000D01*
X120785750Y-155565000D01*
X120627000Y-155723750D01*
X120627000Y-156673000D01*
X120647000Y-156673000D01*
X120647000Y-156927000D01*
X120627000Y-156927000D01*
X120627000Y-156947000D01*
X120373000Y-156947000D01*
X120373000Y-156927000D01*
X119648750Y-156927000D01*
X119490000Y-157085750D01*
X119490000Y-157526309D01*
X119547448Y-157665000D01*
X119325005Y-157665000D01*
X119325000Y-157664999D01*
X118976124Y-157734396D01*
X118928923Y-157743785D01*
X118593144Y-157968144D01*
X118593142Y-157968147D01*
X117981848Y-158579441D01*
X117957299Y-158542701D01*
X117747255Y-158402353D01*
X117499490Y-158353070D01*
X117399249Y-158353070D01*
X117472557Y-158154703D01*
X116500000Y-157182145D01*
X115527443Y-158154703D01*
X115600751Y-158353070D01*
X115500510Y-158353070D01*
X115252745Y-158402353D01*
X115042701Y-158542701D01*
X114902353Y-158752745D01*
X114853070Y-159000510D01*
X114853070Y-160999490D01*
X114902353Y-161247255D01*
X115042701Y-161457299D01*
X115106607Y-161500000D01*
X115042701Y-161542701D01*
X114902353Y-161752745D01*
X114853070Y-162000510D01*
X114853070Y-163999490D01*
X114902353Y-164247255D01*
X115042701Y-164457299D01*
X115252745Y-164597647D01*
X115500510Y-164646930D01*
X116683218Y-164646930D01*
X118407800Y-166371511D01*
X118252745Y-166402353D01*
X118042701Y-166542701D01*
X117902353Y-166752745D01*
X117853070Y-167000510D01*
X117853070Y-168999490D01*
X117902353Y-169247255D01*
X118042701Y-169457299D01*
X118252745Y-169597647D01*
X118500510Y-169646930D01*
X120499490Y-169646930D01*
X120747255Y-169597647D01*
X120957299Y-169457299D01*
X121097647Y-169247255D01*
X121146930Y-168999490D01*
X121146930Y-167000510D01*
X121097647Y-166752745D01*
X120957299Y-166542701D01*
X120747255Y-166402353D01*
X120535000Y-166360133D01*
X120535000Y-166000005D01*
X120535001Y-166000000D01*
X120456215Y-165603923D01*
X120310437Y-165385750D01*
X121915000Y-165385750D01*
X121915000Y-165826309D01*
X122011673Y-166059698D01*
X122190301Y-166238327D01*
X122423690Y-166335000D01*
X122714250Y-166335000D01*
X122873000Y-166176250D01*
X122873000Y-165227000D01*
X123127000Y-165227000D01*
X123127000Y-166176250D01*
X123285750Y-166335000D01*
X123576310Y-166335000D01*
X123809699Y-166238327D01*
X123988327Y-166059698D01*
X124085000Y-165826309D01*
X124085000Y-165385750D01*
X123926250Y-165227000D01*
X123127000Y-165227000D01*
X122873000Y-165227000D01*
X122073750Y-165227000D01*
X121915000Y-165385750D01*
X120310437Y-165385750D01*
X120231856Y-165268144D01*
X120231853Y-165268142D01*
X118146930Y-163183218D01*
X118146930Y-162000510D01*
X118097647Y-161752745D01*
X117957299Y-161542701D01*
X117893393Y-161500000D01*
X117957299Y-161457299D01*
X118097647Y-161247255D01*
X118144599Y-161011211D01*
X118421077Y-160956215D01*
X118756856Y-160731856D01*
X119705383Y-159783328D01*
X119877235Y-159898157D01*
X120125000Y-159947440D01*
X120875000Y-159947440D01*
X121122765Y-159898157D01*
X121332809Y-159757809D01*
X121452130Y-159579234D01*
X121452130Y-161450780D01*
X121501413Y-161698545D01*
X121641761Y-161908589D01*
X121851805Y-162048937D01*
X121948667Y-162068204D01*
X121902560Y-162300000D01*
X121902560Y-163500000D01*
X121951843Y-163747765D01*
X122092191Y-163957809D01*
X122153320Y-163998654D01*
X122011673Y-164140302D01*
X121915000Y-164373691D01*
X121915000Y-164814250D01*
X122073750Y-164973000D01*
X122873000Y-164973000D01*
X122873000Y-164953000D01*
X123127000Y-164953000D01*
X123127000Y-164973000D01*
X123926250Y-164973000D01*
X124085000Y-164814250D01*
X124085000Y-164373691D01*
X123988327Y-164140302D01*
X123846680Y-163998654D01*
X123907809Y-163957809D01*
X124048157Y-163747765D01*
X124097440Y-163500000D01*
X124097440Y-162300000D01*
X124051333Y-162068204D01*
X124148195Y-162048937D01*
X124358239Y-161908589D01*
X124498587Y-161698545D01*
X124547870Y-161450780D01*
X124547870Y-158301180D01*
X124498587Y-158053415D01*
X124358239Y-157843371D01*
X124218501Y-157750000D01*
X124358239Y-157656629D01*
X124498587Y-157446585D01*
X124547870Y-157198820D01*
X124547870Y-156659020D01*
X127605223Y-156659020D01*
X127683354Y-157051810D01*
X128041246Y-157587433D01*
X128194748Y-157690000D01*
X128041246Y-157792567D01*
X127683354Y-158328190D01*
X127557679Y-158960000D01*
X127594944Y-159147344D01*
X126642515Y-160099773D01*
X126418156Y-160435552D01*
X126339370Y-160831629D01*
X126339371Y-160831634D01*
X126339371Y-165714366D01*
X126339370Y-165714371D01*
X126418156Y-166110448D01*
X126642515Y-166446227D01*
X127928653Y-167732364D01*
X127928655Y-167732367D01*
X128025658Y-167829370D01*
X128025226Y-168323694D01*
X128273538Y-168924655D01*
X128732927Y-169384846D01*
X129333453Y-169634206D01*
X129983694Y-169634774D01*
X130584655Y-169386462D01*
X131044846Y-168927073D01*
X131294206Y-168326547D01*
X131294774Y-167676306D01*
X131046462Y-167075345D01*
X130587073Y-166615154D01*
X129986547Y-166365794D01*
X129489071Y-166365359D01*
X129392367Y-166268655D01*
X129392364Y-166268653D01*
X128409371Y-165285659D01*
X128409371Y-162913406D01*
X128576869Y-163025325D01*
X129208679Y-163151000D01*
X129791321Y-163151000D01*
X130423131Y-163025325D01*
X130958754Y-162667433D01*
X131047243Y-162535000D01*
X132032544Y-162535000D01*
X132052235Y-162548157D01*
X132300000Y-162597440D01*
X133500000Y-162597440D01*
X133747765Y-162548157D01*
X133957809Y-162407809D01*
X133998654Y-162346680D01*
X134140302Y-162488327D01*
X134373691Y-162585000D01*
X134814250Y-162585000D01*
X134973000Y-162426250D01*
X134973000Y-161627000D01*
X135227000Y-161627000D01*
X135227000Y-162426250D01*
X135385750Y-162585000D01*
X135826309Y-162585000D01*
X136059698Y-162488327D01*
X136238327Y-162309699D01*
X136266790Y-162240985D01*
X136336673Y-162409698D01*
X136515301Y-162588327D01*
X136748690Y-162685000D01*
X136964250Y-162685000D01*
X137123000Y-162526250D01*
X137123000Y-161577000D01*
X136398750Y-161577000D01*
X136262500Y-161713250D01*
X136176250Y-161627000D01*
X135227000Y-161627000D01*
X134973000Y-161627000D01*
X134953000Y-161627000D01*
X134953000Y-161373000D01*
X134973000Y-161373000D01*
X134973000Y-161353000D01*
X135227000Y-161353000D01*
X135227000Y-161373000D01*
X136176250Y-161373000D01*
X136312500Y-161236750D01*
X136398750Y-161323000D01*
X137123000Y-161323000D01*
X137123000Y-161303000D01*
X137377000Y-161303000D01*
X137377000Y-161323000D01*
X137397000Y-161323000D01*
X137397000Y-161577000D01*
X137377000Y-161577000D01*
X137377000Y-162526250D01*
X137535750Y-162685000D01*
X137751310Y-162685000D01*
X137984699Y-162588327D01*
X138012500Y-162560525D01*
X138190301Y-162738327D01*
X138423690Y-162835000D01*
X138714250Y-162835000D01*
X138873000Y-162676250D01*
X138873000Y-161727000D01*
X138853000Y-161727000D01*
X138853000Y-161473000D01*
X138873000Y-161473000D01*
X138873000Y-161453000D01*
X139127000Y-161453000D01*
X139127000Y-161473000D01*
X139147000Y-161473000D01*
X139147000Y-161727000D01*
X139127000Y-161727000D01*
X139127000Y-162676250D01*
X139285750Y-162835000D01*
X139576310Y-162835000D01*
X139809699Y-162738327D01*
X139988327Y-162559698D01*
X140085000Y-162326309D01*
X140085000Y-161948711D01*
X140202130Y-162065841D01*
X140202130Y-164200780D01*
X140251413Y-164448545D01*
X140391761Y-164658589D01*
X140601805Y-164798937D01*
X140849570Y-164848220D01*
X142650430Y-164848220D01*
X142898195Y-164798937D01*
X143108239Y-164658589D01*
X143248587Y-164448545D01*
X143297870Y-164200780D01*
X143297870Y-161051180D01*
X143248587Y-160803415D01*
X143108239Y-160593371D01*
X142968501Y-160500000D01*
X143108239Y-160406629D01*
X143248587Y-160196585D01*
X143297870Y-159948820D01*
X143297870Y-156799220D01*
X143248587Y-156551455D01*
X143108239Y-156341411D01*
X142898195Y-156201063D01*
X142650430Y-156151780D01*
X140849570Y-156151780D01*
X140601805Y-156201063D01*
X140391761Y-156341411D01*
X140251413Y-156551455D01*
X140202130Y-156799220D01*
X140202130Y-157229960D01*
X139875549Y-157164998D01*
X139875544Y-157164999D01*
X138070004Y-157164999D01*
X138069999Y-157164998D01*
X137673922Y-157243784D01*
X137338143Y-157468143D01*
X137338141Y-157468146D01*
X136518144Y-158288142D01*
X136399972Y-158465000D01*
X135967456Y-158465000D01*
X135947765Y-158451843D01*
X135700000Y-158402560D01*
X135316271Y-158402560D01*
X134431856Y-157518144D01*
X134096077Y-157293785D01*
X133700000Y-157214999D01*
X133699995Y-157215000D01*
X133535000Y-157215000D01*
X133535000Y-156318536D01*
X133535001Y-156318531D01*
X133456215Y-155922454D01*
X133401323Y-155840302D01*
X133231856Y-155586675D01*
X133231853Y-155586673D01*
X131963712Y-154318531D01*
X132731853Y-153550389D01*
X132731856Y-153550387D01*
X132932567Y-153250000D01*
X132956215Y-153214609D01*
X133035000Y-152818531D01*
X133035000Y-136587746D01*
X133070459Y-136611439D01*
X133390000Y-136675000D01*
X134980261Y-136675000D01*
X135100332Y-136854698D01*
X135482418Y-137110000D01*
X135100332Y-137365302D01*
X134789263Y-137830849D01*
X134680030Y-138380000D01*
X134789263Y-138929151D01*
X134978980Y-139213082D01*
X133909566Y-140282496D01*
X133728561Y-140553389D01*
X133665000Y-140872930D01*
X133665000Y-143010000D01*
X133728561Y-143329541D01*
X133902884Y-143590434D01*
X133909566Y-143600434D01*
X134359566Y-144050434D01*
X134630459Y-144231439D01*
X134950000Y-144295000D01*
X134980261Y-144295000D01*
X135100332Y-144474698D01*
X135482418Y-144730000D01*
X135100332Y-144985302D01*
X134789263Y-145450849D01*
X134680030Y-146000000D01*
X134789263Y-146549151D01*
X135100332Y-147014698D01*
X135482418Y-147270000D01*
X135100332Y-147525302D01*
X134789263Y-147990849D01*
X134680030Y-148540000D01*
X134789263Y-149089151D01*
X135100332Y-149554698D01*
X135565879Y-149865767D01*
X136115030Y-149975000D01*
X136884970Y-149975000D01*
X137434121Y-149865767D01*
X137899668Y-149554698D01*
X138210737Y-149089151D01*
X138319970Y-148540000D01*
X138210737Y-147990849D01*
X137899668Y-147525302D01*
X137517582Y-147270000D01*
X137869284Y-147035000D01*
X158499995Y-147035000D01*
X158500000Y-147035001D01*
X158896077Y-146956215D01*
X159231856Y-146731856D01*
X162231853Y-143731858D01*
X162231856Y-143731856D01*
X162456215Y-143396077D01*
X162460090Y-143376595D01*
X162535001Y-143000000D01*
X162535000Y-142999995D01*
X162535000Y-137000005D01*
X162535001Y-137000000D01*
X162456215Y-136603923D01*
X162391994Y-136507809D01*
X162231856Y-136268144D01*
X162231853Y-136268142D01*
X161231856Y-135268144D01*
X160896077Y-135043785D01*
X160500000Y-134964999D01*
X160103923Y-135043785D01*
X159982375Y-135125000D01*
X159117285Y-135125000D01*
X159022765Y-135061843D01*
X158775000Y-135012560D01*
X157225000Y-135012560D01*
X156977235Y-135061843D01*
X156767191Y-135202191D01*
X156626843Y-135412235D01*
X156577560Y-135660000D01*
X156577560Y-136260000D01*
X156626843Y-136507765D01*
X156685132Y-136595000D01*
X156626843Y-136682235D01*
X156577560Y-136930000D01*
X156577560Y-137530000D01*
X156626843Y-137777765D01*
X156685132Y-137865000D01*
X156626843Y-137952235D01*
X156577560Y-138200000D01*
X156577560Y-138800000D01*
X156626843Y-139047765D01*
X156679768Y-139126972D01*
X156590000Y-139343690D01*
X156590000Y-139484250D01*
X156748750Y-139643000D01*
X157873000Y-139643000D01*
X157873000Y-139623000D01*
X158127000Y-139623000D01*
X158127000Y-139643000D01*
X158147000Y-139643000D01*
X158147000Y-139897000D01*
X158127000Y-139897000D01*
X158127000Y-140546250D01*
X158285750Y-140705000D01*
X158901309Y-140705000D01*
X159134698Y-140608327D01*
X159165000Y-140578025D01*
X159165000Y-141154132D01*
X158154132Y-142165000D01*
X147452646Y-142165000D01*
X147461757Y-142151365D01*
X147511040Y-141903600D01*
X147511040Y-140603625D01*
X151480657Y-140603625D01*
X151577235Y-140668157D01*
X151825000Y-140717440D01*
X153375000Y-140717440D01*
X153622765Y-140668157D01*
X153832809Y-140527809D01*
X153973157Y-140317765D01*
X154022440Y-140070000D01*
X154022440Y-140055750D01*
X156590000Y-140055750D01*
X156590000Y-140196310D01*
X156686673Y-140429699D01*
X156865302Y-140608327D01*
X157098691Y-140705000D01*
X157714250Y-140705000D01*
X157873000Y-140546250D01*
X157873000Y-139897000D01*
X156748750Y-139897000D01*
X156590000Y-140055750D01*
X154022440Y-140055750D01*
X154022440Y-139470000D01*
X153973157Y-139222235D01*
X153914868Y-139135000D01*
X153973157Y-139047765D01*
X154022440Y-138800000D01*
X154022440Y-138200000D01*
X153973157Y-137952235D01*
X153914868Y-137865000D01*
X153973157Y-137777765D01*
X154022440Y-137530000D01*
X154022440Y-136930000D01*
X153973157Y-136682235D01*
X153914868Y-136595000D01*
X153973157Y-136507765D01*
X154022440Y-136260000D01*
X154022440Y-135708428D01*
X154708428Y-135022440D01*
X155150000Y-135022440D01*
X155397765Y-134973157D01*
X155489102Y-134912127D01*
X155490302Y-134913327D01*
X155723691Y-135010000D01*
X156164250Y-135010000D01*
X156323000Y-134851250D01*
X156323000Y-134127000D01*
X156577000Y-134127000D01*
X156577000Y-134851250D01*
X156735750Y-135010000D01*
X157176309Y-135010000D01*
X157409698Y-134913327D01*
X157588327Y-134734699D01*
X157685000Y-134501310D01*
X157685000Y-134285750D01*
X157526250Y-134127000D01*
X156577000Y-134127000D01*
X156323000Y-134127000D01*
X156303000Y-134127000D01*
X156303000Y-133873000D01*
X156323000Y-133873000D01*
X156323000Y-133148750D01*
X156577000Y-133148750D01*
X156577000Y-133873000D01*
X157526250Y-133873000D01*
X157685000Y-133714250D01*
X157685000Y-133498690D01*
X157588327Y-133265301D01*
X157409698Y-133086673D01*
X157176309Y-132990000D01*
X156735750Y-132990000D01*
X156577000Y-133148750D01*
X156323000Y-133148750D01*
X156164250Y-132990000D01*
X155723691Y-132990000D01*
X155585000Y-133047448D01*
X155585000Y-132066395D01*
X155585001Y-132066390D01*
X155506215Y-131670313D01*
X155392416Y-131500000D01*
X155281856Y-131334534D01*
X155281853Y-131334532D01*
X155030642Y-131083320D01*
X157846285Y-131083320D01*
X157975533Y-131376123D01*
X158675806Y-131644388D01*
X159425435Y-131624250D01*
X160024467Y-131376123D01*
X160153715Y-131083320D01*
X159000000Y-129929605D01*
X157846285Y-131083320D01*
X155030642Y-131083320D01*
X154576619Y-130629297D01*
X154576616Y-130629295D01*
X154479964Y-130532643D01*
X154479978Y-130516575D01*
X154292356Y-130062497D01*
X153945249Y-129714783D01*
X153491498Y-129526369D01*
X153000185Y-129525940D01*
X152546107Y-129713562D01*
X152198393Y-130060669D01*
X152009979Y-130514420D01*
X152009550Y-131005733D01*
X152197172Y-131459811D01*
X152544279Y-131807525D01*
X152998030Y-131995939D01*
X153015853Y-131995955D01*
X153112905Y-132093006D01*
X153112907Y-132093009D01*
X153515000Y-132495101D01*
X153515000Y-133151950D01*
X153492191Y-133167191D01*
X153351843Y-133377235D01*
X153302560Y-133625000D01*
X153302560Y-134066572D01*
X152356572Y-135012560D01*
X151825000Y-135012560D01*
X151686064Y-135040196D01*
X149694980Y-133049112D01*
X149698657Y-133047592D01*
X150046371Y-132700485D01*
X150234785Y-132246734D01*
X150235214Y-131755421D01*
X150047592Y-131301343D01*
X149700485Y-130953629D01*
X149246734Y-130765215D01*
X148755421Y-130764786D01*
X148301343Y-130952408D01*
X148288729Y-130965000D01*
X146928711Y-130965000D01*
X146498391Y-130534680D01*
X146500000Y-130535000D01*
X146563143Y-130522440D01*
X147100000Y-130522440D01*
X147347765Y-130473157D01*
X147439102Y-130412127D01*
X147440302Y-130413327D01*
X147673691Y-130510000D01*
X148114250Y-130510000D01*
X148273000Y-130351250D01*
X148273000Y-129627000D01*
X148527000Y-129627000D01*
X148527000Y-130351250D01*
X148685750Y-130510000D01*
X149126309Y-130510000D01*
X149359698Y-130413327D01*
X149538327Y-130234699D01*
X149635000Y-130001310D01*
X149635000Y-129785750D01*
X149476250Y-129627000D01*
X148527000Y-129627000D01*
X148273000Y-129627000D01*
X148253000Y-129627000D01*
X148253000Y-129425806D01*
X157105612Y-129425806D01*
X157125750Y-130175435D01*
X157373877Y-130774467D01*
X157666680Y-130903715D01*
X158820395Y-129750000D01*
X159179605Y-129750000D01*
X160333320Y-130903715D01*
X160626123Y-130774467D01*
X160894388Y-130074194D01*
X160874250Y-129324565D01*
X160626123Y-128725533D01*
X160333320Y-128596285D01*
X159179605Y-129750000D01*
X158820395Y-129750000D01*
X157666680Y-128596285D01*
X157373877Y-128725533D01*
X157105612Y-129425806D01*
X148253000Y-129425806D01*
X148253000Y-129373000D01*
X148273000Y-129373000D01*
X148273000Y-129353000D01*
X148527000Y-129353000D01*
X148527000Y-129373000D01*
X149476250Y-129373000D01*
X149635000Y-129214250D01*
X149635000Y-128998690D01*
X149538327Y-128765301D01*
X149359698Y-128586673D01*
X149357892Y-128585925D01*
X149547765Y-128548157D01*
X149567456Y-128535000D01*
X156249995Y-128535000D01*
X156250000Y-128535001D01*
X156646077Y-128456215D01*
X156705245Y-128416680D01*
X157846285Y-128416680D01*
X159000000Y-129570395D01*
X160153715Y-128416680D01*
X160024467Y-128123877D01*
X159324194Y-127855612D01*
X158574565Y-127875750D01*
X157975533Y-128123877D01*
X157846285Y-128416680D01*
X156705245Y-128416680D01*
X156981856Y-128231856D01*
X158592056Y-126621655D01*
X158623405Y-126634672D01*
X159373305Y-126635326D01*
X160066372Y-126348957D01*
X160179776Y-126235750D01*
X161490000Y-126235750D01*
X161490000Y-126676309D01*
X161586673Y-126909698D01*
X161765301Y-127088327D01*
X161998690Y-127185000D01*
X162214250Y-127185000D01*
X162373000Y-127026250D01*
X162373000Y-126077000D01*
X162627000Y-126077000D01*
X162627000Y-127026250D01*
X162785750Y-127185000D01*
X163001310Y-127185000D01*
X163234699Y-127088327D01*
X163413327Y-126909698D01*
X163510000Y-126676309D01*
X163510000Y-126235750D01*
X163351250Y-126077000D01*
X162627000Y-126077000D01*
X162373000Y-126077000D01*
X161648750Y-126077000D01*
X161490000Y-126235750D01*
X160179776Y-126235750D01*
X160597093Y-125819161D01*
X160884672Y-125126595D01*
X160885326Y-124376695D01*
X160598957Y-123683628D01*
X160069161Y-123152907D01*
X159376595Y-122865328D01*
X158626695Y-122864674D01*
X157933628Y-123151043D01*
X157402907Y-123680839D01*
X157115328Y-124373405D01*
X157114674Y-125123305D01*
X157128799Y-125157490D01*
X155821288Y-126465000D01*
X154031393Y-126465000D01*
X154296371Y-126200485D01*
X154484785Y-125746734D01*
X154485214Y-125255421D01*
X154394138Y-125035000D01*
X154499995Y-125035000D01*
X154500000Y-125035001D01*
X154896077Y-124956215D01*
X155231856Y-124731856D01*
X158316271Y-121647440D01*
X159433728Y-121647440D01*
X161465000Y-123678711D01*
X161465000Y-124050000D01*
X161477560Y-124113143D01*
X161477560Y-124650000D01*
X161526843Y-124897765D01*
X161587873Y-124989102D01*
X161586673Y-124990302D01*
X161490000Y-125223691D01*
X161490000Y-125664250D01*
X161648750Y-125823000D01*
X162373000Y-125823000D01*
X162373000Y-125803000D01*
X162627000Y-125803000D01*
X162627000Y-125823000D01*
X163351250Y-125823000D01*
X163510000Y-125664250D01*
X163510000Y-125223691D01*
X163413327Y-124990302D01*
X163412127Y-124989102D01*
X163473157Y-124897765D01*
X163522440Y-124650000D01*
X163522440Y-124113143D01*
X163535000Y-124050000D01*
X163535000Y-123250000D01*
X163456215Y-122853923D01*
X163456215Y-122853922D01*
X163331445Y-122667191D01*
X163231856Y-122518144D01*
X163231853Y-122518142D01*
X160897440Y-120183728D01*
X160897440Y-118500000D01*
X160848157Y-118252235D01*
X160707809Y-118042191D01*
X160497765Y-117901843D01*
X160250000Y-117852560D01*
X157750000Y-117852560D01*
X157502235Y-117901843D01*
X157292191Y-118042191D01*
X157151843Y-118252235D01*
X157102560Y-118500000D01*
X157102560Y-119933729D01*
X154071288Y-122965000D01*
X153961836Y-122965000D01*
X153950485Y-122953629D01*
X153496734Y-122765215D01*
X153048887Y-122764824D01*
X153481853Y-122331858D01*
X153481856Y-122331856D01*
X153706215Y-121996077D01*
X153730697Y-121872999D01*
X153785001Y-121600000D01*
X153785000Y-121599995D01*
X153785000Y-115178712D01*
X154130391Y-114833320D01*
X157846285Y-114833320D01*
X157975533Y-115126123D01*
X158675806Y-115394388D01*
X159425435Y-115374250D01*
X160024467Y-115126123D01*
X160153715Y-114833320D01*
X159000000Y-113679605D01*
X157846285Y-114833320D01*
X154130391Y-114833320D01*
X155787905Y-113175806D01*
X157105612Y-113175806D01*
X157125750Y-113925435D01*
X157373877Y-114524467D01*
X157666680Y-114653715D01*
X158820395Y-113500000D01*
X159179605Y-113500000D01*
X160333320Y-114653715D01*
X160626123Y-114524467D01*
X160894388Y-113824194D01*
X160874250Y-113074565D01*
X160626123Y-112475533D01*
X160333320Y-112346285D01*
X159179605Y-113500000D01*
X158820395Y-113500000D01*
X157666680Y-112346285D01*
X157373877Y-112475533D01*
X157105612Y-113175806D01*
X155787905Y-113175806D01*
X156797031Y-112166680D01*
X157846285Y-112166680D01*
X159000000Y-113320395D01*
X160153715Y-112166680D01*
X160024467Y-111873877D01*
X159324194Y-111605612D01*
X158574565Y-111625750D01*
X157975533Y-111873877D01*
X157846285Y-112166680D01*
X156797031Y-112166680D01*
X158592056Y-110371655D01*
X158623405Y-110384672D01*
X159373305Y-110385326D01*
X160066372Y-110098957D01*
X160430213Y-109735750D01*
X161490000Y-109735750D01*
X161490000Y-110176309D01*
X161586673Y-110409698D01*
X161765301Y-110588327D01*
X161998690Y-110685000D01*
X162214250Y-110685000D01*
X162373000Y-110526250D01*
X162373000Y-109577000D01*
X162627000Y-109577000D01*
X162627000Y-110526250D01*
X162785750Y-110685000D01*
X163001310Y-110685000D01*
X163234699Y-110588327D01*
X163413327Y-110409698D01*
X163510000Y-110176309D01*
X163510000Y-109735750D01*
X163351250Y-109577000D01*
X162627000Y-109577000D01*
X162373000Y-109577000D01*
X161648750Y-109577000D01*
X161490000Y-109735750D01*
X160430213Y-109735750D01*
X160597093Y-109569161D01*
X160884672Y-108876595D01*
X160885326Y-108126695D01*
X160598957Y-107433628D01*
X160069161Y-106902907D01*
X159376595Y-106615328D01*
X158626695Y-106614674D01*
X157933628Y-106901043D01*
X157402907Y-107430839D01*
X157115328Y-108123405D01*
X157114674Y-108873305D01*
X157128799Y-108907490D01*
X154352371Y-111683917D01*
X154297592Y-111551343D01*
X154285000Y-111538729D01*
X154285000Y-107628712D01*
X157112706Y-104801006D01*
X157151843Y-104997765D01*
X157292191Y-105207809D01*
X157502235Y-105348157D01*
X157750000Y-105397440D01*
X159433728Y-105397440D01*
X161465000Y-107428711D01*
X161465000Y-107550000D01*
X161477560Y-107613143D01*
X161477560Y-108150000D01*
X161526843Y-108397765D01*
X161587873Y-108489102D01*
X161586673Y-108490302D01*
X161490000Y-108723691D01*
X161490000Y-109164250D01*
X161648750Y-109323000D01*
X162373000Y-109323000D01*
X162373000Y-109303000D01*
X162627000Y-109303000D01*
X162627000Y-109323000D01*
X163351250Y-109323000D01*
X163510000Y-109164250D01*
X163510000Y-108723691D01*
X163413327Y-108490302D01*
X163412127Y-108489102D01*
X163473157Y-108397765D01*
X163522440Y-108150000D01*
X163522440Y-107613143D01*
X163535000Y-107550000D01*
X163535000Y-107000000D01*
X163475771Y-106702235D01*
X163456215Y-106603922D01*
X163353935Y-106450849D01*
X163231856Y-106268144D01*
X163231853Y-106268142D01*
X160897440Y-103933728D01*
X160897440Y-102250000D01*
X160848157Y-102002235D01*
X160707809Y-101792191D01*
X160497765Y-101651843D01*
X160250000Y-101602560D01*
X157750000Y-101602560D01*
X157502235Y-101651843D01*
X157292191Y-101792191D01*
X157151843Y-102002235D01*
X157102560Y-102250000D01*
X157102560Y-102465000D01*
X156950005Y-102465000D01*
X156950000Y-102464999D01*
X156553922Y-102543785D01*
X156419429Y-102633651D01*
X156218144Y-102768144D01*
X156218142Y-102768147D01*
X152518144Y-106468144D01*
X152293785Y-106803923D01*
X152214999Y-107200000D01*
X152215000Y-107200005D01*
X152215000Y-111538164D01*
X152203629Y-111549515D01*
X152015215Y-112003266D01*
X152014786Y-112494579D01*
X152202408Y-112948657D01*
X152549515Y-113296371D01*
X152684052Y-113352236D01*
X152018144Y-114018144D01*
X151793785Y-114353923D01*
X151714999Y-114750000D01*
X151715000Y-114750005D01*
X151715000Y-121171289D01*
X149513290Y-123372998D01*
X149476252Y-123372998D01*
X149635000Y-123214250D01*
X149635000Y-122998690D01*
X149538327Y-122765301D01*
X149359698Y-122586673D01*
X149126309Y-122490000D01*
X148685750Y-122490000D01*
X148527000Y-122648750D01*
X148527000Y-123373000D01*
X148547000Y-123373000D01*
X148547000Y-123627000D01*
X148527000Y-123627000D01*
X148527000Y-123647000D01*
X148273000Y-123647000D01*
X148273000Y-123627000D01*
X148253000Y-123627000D01*
X148253000Y-123373000D01*
X148273000Y-123373000D01*
X148273000Y-122648750D01*
X148114250Y-122490000D01*
X147673691Y-122490000D01*
X147440302Y-122586673D01*
X147439102Y-122587873D01*
X147347765Y-122526843D01*
X147100000Y-122477560D01*
X146563143Y-122477560D01*
X146500000Y-122465000D01*
X146436857Y-122477560D01*
X145900000Y-122477560D01*
X145652235Y-122526843D01*
X145535000Y-122605178D01*
X145535000Y-115446580D01*
X145490103Y-115220869D01*
X145456215Y-115050502D01*
X145362044Y-114909566D01*
X145231856Y-114714724D01*
X145231853Y-114714722D01*
X141302020Y-110784888D01*
X141302017Y-110784886D01*
X141205365Y-110688234D01*
X141205379Y-110672166D01*
X141017757Y-110218088D01*
X140934305Y-110134490D01*
X141716790Y-110134490D01*
X141875540Y-109975740D01*
X141875540Y-108627000D01*
X142129540Y-108627000D01*
X142129540Y-109975740D01*
X142288290Y-110134490D01*
X143128340Y-110134490D01*
X143361729Y-110037817D01*
X143540357Y-109859188D01*
X143637030Y-109625799D01*
X143637030Y-108785750D01*
X143478280Y-108627000D01*
X142129540Y-108627000D01*
X141875540Y-108627000D01*
X140526800Y-108627000D01*
X140368050Y-108785750D01*
X140368050Y-109625799D01*
X140427543Y-109769427D01*
X140216899Y-109681960D01*
X139725586Y-109681531D01*
X139271508Y-109869153D01*
X138923794Y-110216260D01*
X138735380Y-110670011D01*
X138734951Y-111161324D01*
X138922573Y-111615402D01*
X139269680Y-111963116D01*
X139723431Y-112151530D01*
X139741254Y-112151546D01*
X139838306Y-112248597D01*
X139838308Y-112248600D01*
X143465000Y-115875291D01*
X143465000Y-117919274D01*
X143389002Y-117735345D01*
X142929613Y-117275154D01*
X142329087Y-117025794D01*
X141678846Y-117025226D01*
X141077885Y-117273538D01*
X140617694Y-117732927D01*
X140368334Y-118333453D01*
X140367766Y-118983694D01*
X140616078Y-119584655D01*
X140770063Y-119738908D01*
X140752745Y-119742353D01*
X140542701Y-119882701D01*
X140402353Y-120092745D01*
X140353070Y-120340510D01*
X140353070Y-122339490D01*
X140402353Y-122587255D01*
X140542701Y-122797299D01*
X140752745Y-122937647D01*
X141000510Y-122986930D01*
X142999490Y-122986930D01*
X143247255Y-122937647D01*
X143457299Y-122797299D01*
X143465000Y-122785774D01*
X143465000Y-123288164D01*
X143453629Y-123299515D01*
X143265215Y-123753266D01*
X143264786Y-124244579D01*
X143430237Y-124645000D01*
X137869284Y-124645000D01*
X137517582Y-124410000D01*
X137899668Y-124154698D01*
X138210737Y-123689151D01*
X138319970Y-123140000D01*
X138210737Y-122590849D01*
X137899668Y-122125302D01*
X137517582Y-121870000D01*
X137899668Y-121614698D01*
X138210737Y-121149151D01*
X138319970Y-120600000D01*
X138210737Y-120050849D01*
X137899668Y-119585302D01*
X137517582Y-119330000D01*
X137899668Y-119074698D01*
X138210737Y-118609151D01*
X138319970Y-118060000D01*
X138210737Y-117510849D01*
X137899668Y-117045302D01*
X137517582Y-116790000D01*
X137899668Y-116534698D01*
X138210737Y-116069151D01*
X138319970Y-115520000D01*
X138210737Y-114970849D01*
X137899668Y-114505302D01*
X137434121Y-114194233D01*
X136884970Y-114085000D01*
X136115030Y-114085000D01*
X135932229Y-114121361D01*
X135785000Y-113974132D01*
X135785000Y-113970000D01*
X135721440Y-113650460D01*
X135540434Y-113379566D01*
X131070434Y-108909566D01*
X131021089Y-108876595D01*
X130799541Y-108728561D01*
X130480000Y-108665000D01*
X123206459Y-108665000D01*
X123157809Y-108592191D01*
X122947765Y-108451843D01*
X122700000Y-108402560D01*
X121500000Y-108402560D01*
X121252235Y-108451843D01*
X121042191Y-108592191D01*
X121000000Y-108655334D01*
X120957809Y-108592191D01*
X120747765Y-108451843D01*
X120500000Y-108402560D01*
X119300000Y-108402560D01*
X119052235Y-108451843D01*
X118842191Y-108592191D01*
X118766814Y-108705000D01*
X117519739Y-108705000D01*
X117399668Y-108525302D01*
X117021849Y-108272851D01*
X117454500Y-107924896D01*
X117724367Y-107431819D01*
X117736573Y-107374201D01*
X140368050Y-107374201D01*
X140368050Y-108214250D01*
X140526800Y-108373000D01*
X141875540Y-108373000D01*
X141875540Y-107024260D01*
X142129540Y-107024260D01*
X142129540Y-108373000D01*
X143478280Y-108373000D01*
X143637030Y-108214250D01*
X143637030Y-107374201D01*
X143540357Y-107140812D01*
X143361729Y-106962183D01*
X143128340Y-106865510D01*
X142288290Y-106865510D01*
X142129540Y-107024260D01*
X141875540Y-107024260D01*
X141716790Y-106865510D01*
X140876740Y-106865510D01*
X140643351Y-106962183D01*
X140464723Y-107140812D01*
X140368050Y-107374201D01*
X117736573Y-107374201D01*
X117741904Y-107349039D01*
X117619915Y-107127000D01*
X116127000Y-107127000D01*
X116127000Y-107147000D01*
X115873000Y-107147000D01*
X115873000Y-107127000D01*
X114380085Y-107127000D01*
X114258096Y-107349039D01*
X114275633Y-107431819D01*
X114545500Y-107924896D01*
X114978151Y-108272851D01*
X114600332Y-108525302D01*
X114289263Y-108990849D01*
X114180030Y-109540000D01*
X114289263Y-110089151D01*
X114600332Y-110554698D01*
X115065879Y-110865767D01*
X115615030Y-110975000D01*
X116384970Y-110975000D01*
X116934121Y-110865767D01*
X117399668Y-110554698D01*
X117519739Y-110375000D01*
X118820269Y-110375000D01*
X118842191Y-110407809D01*
X119052235Y-110548157D01*
X119300000Y-110597440D01*
X120500000Y-110597440D01*
X120747765Y-110548157D01*
X120957809Y-110407809D01*
X121000000Y-110344666D01*
X121042191Y-110407809D01*
X121252235Y-110548157D01*
X121500000Y-110597440D01*
X122700000Y-110597440D01*
X122947765Y-110548157D01*
X123157809Y-110407809D01*
X123206459Y-110335000D01*
X125011287Y-110335000D01*
X121334012Y-114012274D01*
X121109653Y-114348053D01*
X121030867Y-114744130D01*
X121030868Y-114744135D01*
X121030868Y-116255865D01*
X121030867Y-116255870D01*
X121109653Y-116651947D01*
X121334012Y-116987726D01*
X122578140Y-118231853D01*
X122578142Y-118231856D01*
X122811062Y-118387487D01*
X122765000Y-118498690D01*
X122765000Y-118714250D01*
X122923750Y-118873000D01*
X123873000Y-118873000D01*
X123873000Y-118853000D01*
X124127000Y-118853000D01*
X124127000Y-118873000D01*
X124147000Y-118873000D01*
X124147000Y-119127000D01*
X124127000Y-119127000D01*
X124127000Y-119851250D01*
X124285750Y-120010000D01*
X124726309Y-120010000D01*
X124959698Y-119913327D01*
X124960898Y-119912127D01*
X125052235Y-119973157D01*
X125300000Y-120022440D01*
X125836857Y-120022440D01*
X125900000Y-120035000D01*
X125963143Y-120022440D01*
X126500000Y-120022440D01*
X126747765Y-119973157D01*
X126957809Y-119832809D01*
X127098157Y-119622765D01*
X127147440Y-119375000D01*
X127147440Y-118625000D01*
X127098157Y-118377235D01*
X126957809Y-118167191D01*
X126935000Y-118151950D01*
X126935000Y-117825000D01*
X126856215Y-117428923D01*
X126856215Y-117428922D01*
X126811720Y-117362330D01*
X126956215Y-117146077D01*
X126966744Y-117093144D01*
X127035001Y-116750000D01*
X127035000Y-116749995D01*
X127035000Y-116423050D01*
X127057809Y-116407809D01*
X127093095Y-116355000D01*
X127360261Y-116355000D01*
X127480332Y-116534698D01*
X127862418Y-116790000D01*
X127480332Y-117045302D01*
X127169263Y-117510849D01*
X127060030Y-118060000D01*
X127169263Y-118609151D01*
X127480332Y-119074698D01*
X127862418Y-119330000D01*
X127480332Y-119585302D01*
X127169263Y-120050849D01*
X127060030Y-120600000D01*
X127169263Y-121149151D01*
X127480332Y-121614698D01*
X127862418Y-121870000D01*
X127480332Y-122125302D01*
X127169263Y-122590849D01*
X127060030Y-123140000D01*
X127061068Y-123145220D01*
X124768144Y-125438144D01*
X124543785Y-125773923D01*
X124464999Y-126170000D01*
X124465000Y-126170005D01*
X124465000Y-126865000D01*
X118300102Y-126865000D01*
X118019668Y-126445302D01*
X117554121Y-126134233D01*
X117004970Y-126025000D01*
X116235030Y-126025000D01*
X115685879Y-126134233D01*
X115220332Y-126445302D01*
X114909263Y-126910849D01*
X114800030Y-127460000D01*
X114909263Y-128009151D01*
X115220332Y-128474698D01*
X115598151Y-128727149D01*
X115165500Y-129075104D01*
X114895633Y-129568181D01*
X114878096Y-129650961D01*
X115000085Y-129873000D01*
X116493000Y-129873000D01*
X116493000Y-129853000D01*
X116747000Y-129853000D01*
X116747000Y-129873000D01*
X118239915Y-129873000D01*
X118361904Y-129650961D01*
X118344367Y-129568181D01*
X118074500Y-129075104D01*
X117900293Y-128935000D01*
X124576950Y-128935000D01*
X124592191Y-128957809D01*
X124655334Y-129000000D01*
X124592191Y-129042191D01*
X124451843Y-129252235D01*
X124402560Y-129500000D01*
X124402560Y-130700000D01*
X124451843Y-130947765D01*
X124592191Y-131157809D01*
X124802235Y-131298157D01*
X125050000Y-131347440D01*
X125950000Y-131347440D01*
X126197765Y-131298157D01*
X126407809Y-131157809D01*
X126423050Y-131135000D01*
X127134622Y-131135000D01*
X127169263Y-131309151D01*
X127480332Y-131774698D01*
X127858151Y-132027149D01*
X127425500Y-132375104D01*
X127155633Y-132868181D01*
X127138096Y-132950961D01*
X127260085Y-133173000D01*
X128753000Y-133173000D01*
X128753000Y-133153000D01*
X129007000Y-133153000D01*
X129007000Y-133173000D01*
X130499915Y-133173000D01*
X130621904Y-132950961D01*
X130604367Y-132868181D01*
X130580018Y-132823691D01*
X130990000Y-132823691D01*
X130990000Y-133264250D01*
X131148750Y-133423000D01*
X131873000Y-133423000D01*
X131873000Y-132473750D01*
X131714250Y-132315000D01*
X131498690Y-132315000D01*
X131265301Y-132411673D01*
X131086673Y-132590302D01*
X130990000Y-132823691D01*
X130580018Y-132823691D01*
X130334500Y-132375104D01*
X129901849Y-132027149D01*
X130249284Y-131795000D01*
X131921456Y-131795000D01*
X131951843Y-131947765D01*
X132092191Y-132157809D01*
X132302235Y-132298157D01*
X132386911Y-132315000D01*
X132285750Y-132315000D01*
X132127000Y-132473750D01*
X132127000Y-133423000D01*
X132147000Y-133423000D01*
X132147000Y-133677000D01*
X132127000Y-133677000D01*
X132127000Y-133697000D01*
X131873000Y-133697000D01*
X131873000Y-133677000D01*
X131148750Y-133677000D01*
X130990000Y-133835750D01*
X130990000Y-134276309D01*
X131086673Y-134509698D01*
X131087873Y-134510898D01*
X131026843Y-134602235D01*
X130977560Y-134850000D01*
X130977560Y-135386857D01*
X130965000Y-135450000D01*
X130965000Y-152389820D01*
X130500000Y-152854820D01*
X124913325Y-147268144D01*
X124577546Y-147043785D01*
X124181469Y-146964999D01*
X124181464Y-146965000D01*
X118397440Y-146965000D01*
X118397440Y-146750000D01*
X118348157Y-146502235D01*
X118207809Y-146292191D01*
X117997765Y-146151843D01*
X117750000Y-146102560D01*
X116066271Y-146102560D01*
X113522440Y-143558728D01*
X113522440Y-143400000D01*
X113517131Y-143373305D01*
X114614674Y-143373305D01*
X114901043Y-144066372D01*
X115430839Y-144597093D01*
X116123405Y-144884672D01*
X116873305Y-144885326D01*
X117566372Y-144598957D01*
X118097093Y-144069161D01*
X118111278Y-144035000D01*
X118499995Y-144035000D01*
X118500000Y-144035001D01*
X118896077Y-143956215D01*
X119231856Y-143731856D01*
X119677961Y-143285750D01*
X121865000Y-143285750D01*
X121865000Y-143501310D01*
X121961673Y-143734699D01*
X122140302Y-143913327D01*
X122373691Y-144010000D01*
X122814250Y-144010000D01*
X122973000Y-143851250D01*
X122973000Y-143127000D01*
X122023750Y-143127000D01*
X121865000Y-143285750D01*
X119677961Y-143285750D01*
X120928711Y-142035000D01*
X121932544Y-142035000D01*
X121952235Y-142048157D01*
X122142108Y-142085925D01*
X122140302Y-142086673D01*
X121961673Y-142265301D01*
X121865000Y-142498690D01*
X121865000Y-142714250D01*
X122023750Y-142873000D01*
X122973000Y-142873000D01*
X122973000Y-142853000D01*
X123227000Y-142853000D01*
X123227000Y-142873000D01*
X123247000Y-142873000D01*
X123247000Y-143127000D01*
X123227000Y-143127000D01*
X123227000Y-143851250D01*
X123385750Y-144010000D01*
X123826309Y-144010000D01*
X124059698Y-143913327D01*
X124060898Y-143912127D01*
X124152235Y-143973157D01*
X124400000Y-144022440D01*
X124936857Y-144022440D01*
X125000000Y-144035000D01*
X125063143Y-144022440D01*
X125600000Y-144022440D01*
X125847765Y-143973157D01*
X126057809Y-143832809D01*
X126198157Y-143622765D01*
X126247440Y-143375000D01*
X126247440Y-142625000D01*
X126198157Y-142377235D01*
X126057809Y-142167191D01*
X126035000Y-142151950D01*
X126035000Y-142035000D01*
X127630444Y-142035000D01*
X127862418Y-142190000D01*
X127480332Y-142445302D01*
X127169263Y-142910849D01*
X127060030Y-143460000D01*
X127169263Y-144009151D01*
X127480332Y-144474698D01*
X127862418Y-144730000D01*
X127480332Y-144985302D01*
X127169263Y-145450849D01*
X127060030Y-146000000D01*
X127169263Y-146549151D01*
X127480332Y-147014698D01*
X127862418Y-147270000D01*
X127480332Y-147525302D01*
X127169263Y-147990849D01*
X127060030Y-148540000D01*
X127169263Y-149089151D01*
X127480332Y-149554698D01*
X127945879Y-149865767D01*
X128495030Y-149975000D01*
X129264970Y-149975000D01*
X129814121Y-149865767D01*
X130279668Y-149554698D01*
X130590737Y-149089151D01*
X130699970Y-148540000D01*
X130590737Y-147990849D01*
X130279668Y-147525302D01*
X129897582Y-147270000D01*
X130279668Y-147014698D01*
X130590737Y-146549151D01*
X130699970Y-146000000D01*
X130590737Y-145450849D01*
X130279668Y-144985302D01*
X129897582Y-144730000D01*
X130279668Y-144474698D01*
X130590737Y-144009151D01*
X130699970Y-143460000D01*
X130590737Y-142910849D01*
X130279668Y-142445302D01*
X129897582Y-142190000D01*
X130279668Y-141934698D01*
X130590737Y-141469151D01*
X130699970Y-140920000D01*
X130590737Y-140370849D01*
X130279668Y-139905302D01*
X129897582Y-139650000D01*
X130279668Y-139394698D01*
X130590737Y-138929151D01*
X130699970Y-138380000D01*
X130590737Y-137830849D01*
X130279668Y-137365302D01*
X129897582Y-137110000D01*
X130279668Y-136854698D01*
X130590737Y-136389151D01*
X130699970Y-135840000D01*
X130590737Y-135290849D01*
X130279668Y-134825302D01*
X129901849Y-134572851D01*
X130334500Y-134224896D01*
X130604367Y-133731819D01*
X130621904Y-133649039D01*
X130499915Y-133427000D01*
X129007000Y-133427000D01*
X129007000Y-133447000D01*
X128753000Y-133447000D01*
X128753000Y-133427000D01*
X127260085Y-133427000D01*
X127138096Y-133649039D01*
X127155633Y-133731819D01*
X127425500Y-134224896D01*
X127858151Y-134572851D01*
X127480332Y-134825302D01*
X127169263Y-135290849D01*
X127060030Y-135840000D01*
X127169263Y-136389151D01*
X127480332Y-136854698D01*
X127862418Y-137110000D01*
X127480332Y-137365302D01*
X127169263Y-137830849D01*
X127060030Y-138380000D01*
X127169263Y-138929151D01*
X127480332Y-139394698D01*
X127862418Y-139650000D01*
X127480332Y-139905302D01*
X127440443Y-139965000D01*
X125867456Y-139965000D01*
X125847765Y-139951843D01*
X125600000Y-139902560D01*
X124400000Y-139902560D01*
X124152235Y-139951843D01*
X123942191Y-140092191D01*
X123900000Y-140155334D01*
X123857809Y-140092191D01*
X123647765Y-139951843D01*
X123400000Y-139902560D01*
X122200000Y-139902560D01*
X121952235Y-139951843D01*
X121932544Y-139965000D01*
X120500005Y-139965000D01*
X120500000Y-139964999D01*
X120133358Y-140037930D01*
X120103923Y-140043785D01*
X119768144Y-140268144D01*
X119768142Y-140268147D01*
X118100040Y-141936248D01*
X118098957Y-141933628D01*
X117569161Y-141402907D01*
X116876595Y-141115328D01*
X116126695Y-141114674D01*
X115433628Y-141401043D01*
X114902907Y-141930839D01*
X114615328Y-142623405D01*
X114614674Y-143373305D01*
X113517131Y-143373305D01*
X113473157Y-143152235D01*
X113412127Y-143060898D01*
X113413327Y-143059698D01*
X113510000Y-142826309D01*
X113510000Y-142385750D01*
X113351250Y-142227000D01*
X112627000Y-142227000D01*
X112627000Y-142247000D01*
X112373000Y-142247000D01*
X112373000Y-142227000D01*
X111648750Y-142227000D01*
X111490000Y-142385750D01*
X111490000Y-142826309D01*
X111586673Y-143059698D01*
X111587873Y-143060898D01*
X111526843Y-143152235D01*
X111477560Y-143400000D01*
X111477560Y-143936853D01*
X111464999Y-144000000D01*
X105179606Y-144000000D01*
X107805915Y-141373691D01*
X111490000Y-141373691D01*
X111490000Y-141814250D01*
X111648750Y-141973000D01*
X112373000Y-141973000D01*
X112373000Y-141023750D01*
X112627000Y-141023750D01*
X112627000Y-141973000D01*
X113351250Y-141973000D01*
X113510000Y-141814250D01*
X113510000Y-141373691D01*
X113413327Y-141140302D01*
X113234699Y-140961673D01*
X113001310Y-140865000D01*
X112785750Y-140865000D01*
X112627000Y-141023750D01*
X112373000Y-141023750D01*
X112214250Y-140865000D01*
X111998690Y-140865000D01*
X111765301Y-140961673D01*
X111586673Y-141140302D01*
X111490000Y-141373691D01*
X107805915Y-141373691D01*
X109846286Y-139333320D01*
X115346285Y-139333320D01*
X115475533Y-139626123D01*
X116175806Y-139894388D01*
X116925435Y-139874250D01*
X117524467Y-139626123D01*
X117653715Y-139333320D01*
X116500000Y-138179605D01*
X115346285Y-139333320D01*
X109846286Y-139333320D01*
X111503800Y-137675806D01*
X114605612Y-137675806D01*
X114625750Y-138425435D01*
X114873877Y-139024467D01*
X115166680Y-139153715D01*
X116320395Y-138000000D01*
X116679605Y-138000000D01*
X117833320Y-139153715D01*
X118126123Y-139024467D01*
X118394388Y-138324194D01*
X118374250Y-137574565D01*
X118126123Y-136975533D01*
X117833320Y-136846285D01*
X116679605Y-138000000D01*
X116320395Y-138000000D01*
X115166680Y-136846285D01*
X114873877Y-136975533D01*
X114605612Y-137675806D01*
X111503800Y-137675806D01*
X112512926Y-136666680D01*
X115346285Y-136666680D01*
X116500000Y-137820395D01*
X117653715Y-136666680D01*
X117524467Y-136373877D01*
X116824194Y-136105612D01*
X116074565Y-136125750D01*
X115475533Y-136373877D01*
X115346285Y-136666680D01*
X112512926Y-136666680D01*
X114589803Y-134589803D01*
X114617333Y-134548601D01*
X114627000Y-134500000D01*
X114627000Y-130349039D01*
X114878096Y-130349039D01*
X114895633Y-130431819D01*
X115165500Y-130924896D01*
X115603517Y-131277166D01*
X116143000Y-131435000D01*
X116493000Y-131435000D01*
X116493000Y-130127000D01*
X116747000Y-130127000D01*
X116747000Y-131435000D01*
X117097000Y-131435000D01*
X117636483Y-131277166D01*
X118074500Y-130924896D01*
X118344367Y-130431819D01*
X118361904Y-130349039D01*
X118239915Y-130127000D01*
X116747000Y-130127000D01*
X116493000Y-130127000D01*
X115000085Y-130127000D01*
X114878096Y-130349039D01*
X114627000Y-130349039D01*
X114627000Y-119285750D01*
X122765000Y-119285750D01*
X122765000Y-119501310D01*
X122861673Y-119734699D01*
X123040302Y-119913327D01*
X123273691Y-120010000D01*
X123714250Y-120010000D01*
X123873000Y-119851250D01*
X123873000Y-119127000D01*
X122923750Y-119127000D01*
X122765000Y-119285750D01*
X114627000Y-119285750D01*
X114627000Y-114500000D01*
X114617333Y-114451399D01*
X114589803Y-114410197D01*
X113627000Y-113447394D01*
X113627000Y-106650961D01*
X114258096Y-106650961D01*
X114380085Y-106873000D01*
X115873000Y-106873000D01*
X115873000Y-105565000D01*
X116127000Y-105565000D01*
X116127000Y-106873000D01*
X117619915Y-106873000D01*
X117741904Y-106650961D01*
X117724367Y-106568181D01*
X117454500Y-106075104D01*
X117016483Y-105722834D01*
X116477000Y-105565000D01*
X116127000Y-105565000D01*
X115873000Y-105565000D01*
X115523000Y-105565000D01*
X114983517Y-105722834D01*
X114545500Y-106075104D01*
X114275633Y-106568181D01*
X114258096Y-106650961D01*
X113627000Y-106650961D01*
X113627000Y-100710000D01*
X164290000Y-100710000D01*
X164290000Y-174290000D01*
G36*
X150834566Y-136550434D02*
X151105459Y-136731439D01*
X151212808Y-136752792D01*
X151177560Y-136930000D01*
X151177560Y-137530000D01*
X151204413Y-137665000D01*
X149414509Y-137665000D01*
X149698657Y-137547592D01*
X150046371Y-137200485D01*
X150234785Y-136746734D01*
X150235214Y-136255421D01*
X150047592Y-135801343D01*
X149700485Y-135453629D01*
X149246734Y-135265215D01*
X149228911Y-135265199D01*
X149191856Y-135228144D01*
X148856077Y-135003785D01*
X148460000Y-134924999D01*
X148459995Y-134925000D01*
X147105513Y-134925000D01*
X147089029Y-134900330D01*
X146602848Y-134575474D01*
X146029359Y-134461400D01*
X145970641Y-134461400D01*
X145397152Y-134575474D01*
X144910971Y-134900330D01*
X144730008Y-135171161D01*
X144348490Y-134753179D01*
X143819027Y-134505032D01*
X143587000Y-134625531D01*
X143587000Y-135833000D01*
X143607000Y-135833000D01*
X143607000Y-136087000D01*
X143587000Y-136087000D01*
X143587000Y-136107000D01*
X143333000Y-136107000D01*
X143333000Y-136087000D01*
X142126183Y-136087000D01*
X142005042Y-136319026D01*
X142177312Y-136734947D01*
X142185799Y-136744246D01*
X141385045Y-137545000D01*
X138019739Y-137545000D01*
X137899668Y-137365302D01*
X137517582Y-137110000D01*
X137899668Y-136854698D01*
X138019739Y-136675000D01*
X139607045Y-136675000D01*
X139810381Y-136878692D01*
X140264132Y-137067106D01*
X140755445Y-137067535D01*
X141209523Y-136879913D01*
X141557237Y-136532806D01*
X141745651Y-136079055D01*
X141745914Y-135778141D01*
X142062991Y-135461064D01*
X142005042Y-135600974D01*
X142126183Y-135833000D01*
X143333000Y-135833000D01*
X143333000Y-134625531D01*
X143100973Y-134505032D01*
X142946735Y-134577320D01*
X143189055Y-134335000D01*
X148619132Y-134335000D01*
X150834566Y-136550434D01*
X150834566Y-136550434D01*
G37*
X150834566Y-136550434D02*
X151105459Y-136731439D01*
X151212808Y-136752792D01*
X151177560Y-136930000D01*
X151177560Y-137530000D01*
X151204413Y-137665000D01*
X149414509Y-137665000D01*
X149698657Y-137547592D01*
X150046371Y-137200485D01*
X150234785Y-136746734D01*
X150235214Y-136255421D01*
X150047592Y-135801343D01*
X149700485Y-135453629D01*
X149246734Y-135265215D01*
X149228911Y-135265199D01*
X149191856Y-135228144D01*
X148856077Y-135003785D01*
X148460000Y-134924999D01*
X148459995Y-134925000D01*
X147105513Y-134925000D01*
X147089029Y-134900330D01*
X146602848Y-134575474D01*
X146029359Y-134461400D01*
X145970641Y-134461400D01*
X145397152Y-134575474D01*
X144910971Y-134900330D01*
X144730008Y-135171161D01*
X144348490Y-134753179D01*
X143819027Y-134505032D01*
X143587000Y-134625531D01*
X143587000Y-135833000D01*
X143607000Y-135833000D01*
X143607000Y-136087000D01*
X143587000Y-136087000D01*
X143587000Y-136107000D01*
X143333000Y-136107000D01*
X143333000Y-136087000D01*
X142126183Y-136087000D01*
X142005042Y-136319026D01*
X142177312Y-136734947D01*
X142185799Y-136744246D01*
X141385045Y-137545000D01*
X138019739Y-137545000D01*
X137899668Y-137365302D01*
X137517582Y-137110000D01*
X137899668Y-136854698D01*
X138019739Y-136675000D01*
X139607045Y-136675000D01*
X139810381Y-136878692D01*
X140264132Y-137067106D01*
X140755445Y-137067535D01*
X141209523Y-136879913D01*
X141557237Y-136532806D01*
X141745651Y-136079055D01*
X141745914Y-135778141D01*
X142062991Y-135461064D01*
X142005042Y-135600974D01*
X142126183Y-135833000D01*
X143333000Y-135833000D01*
X143333000Y-134625531D01*
X143100973Y-134505032D01*
X142946735Y-134577320D01*
X143189055Y-134335000D01*
X148619132Y-134335000D01*
X150834566Y-136550434D01*
G36*
X138526843Y-128652235D02*
X138477560Y-128900000D01*
X138477560Y-130100000D01*
X138526843Y-130347765D01*
X138587873Y-130439102D01*
X138586673Y-130440302D01*
X138490000Y-130673691D01*
X138490000Y-131114250D01*
X138648750Y-131273000D01*
X139373000Y-131273000D01*
X139373000Y-131253000D01*
X139627000Y-131253000D01*
X139627000Y-131273000D01*
X139647000Y-131273000D01*
X139647000Y-131527000D01*
X139627000Y-131527000D01*
X139627000Y-131547000D01*
X139373000Y-131547000D01*
X139373000Y-131527000D01*
X138648750Y-131527000D01*
X138490000Y-131685750D01*
X138490000Y-132126309D01*
X138586673Y-132359698D01*
X138691974Y-132465000D01*
X138019739Y-132465000D01*
X137899668Y-132285302D01*
X137521849Y-132032851D01*
X137954500Y-131684896D01*
X138224367Y-131191819D01*
X138241904Y-131109039D01*
X138119915Y-130887000D01*
X136627000Y-130887000D01*
X136627000Y-130907000D01*
X136373000Y-130907000D01*
X136373000Y-130887000D01*
X136353000Y-130887000D01*
X136353000Y-130633000D01*
X136373000Y-130633000D01*
X136373000Y-130613000D01*
X136627000Y-130613000D01*
X136627000Y-130633000D01*
X138119915Y-130633000D01*
X138241904Y-130410961D01*
X138224367Y-130328181D01*
X137954500Y-129835104D01*
X137521849Y-129487149D01*
X137899668Y-129234698D01*
X138210737Y-128769151D01*
X138214754Y-128748958D01*
X138428711Y-128535000D01*
X138605178Y-128535000D01*
X138526843Y-128652235D01*
X138526843Y-128652235D01*
G37*
X138526843Y-128652235D02*
X138477560Y-128900000D01*
X138477560Y-130100000D01*
X138526843Y-130347765D01*
X138587873Y-130439102D01*
X138586673Y-130440302D01*
X138490000Y-130673691D01*
X138490000Y-131114250D01*
X138648750Y-131273000D01*
X139373000Y-131273000D01*
X139373000Y-131253000D01*
X139627000Y-131253000D01*
X139627000Y-131273000D01*
X139647000Y-131273000D01*
X139647000Y-131527000D01*
X139627000Y-131527000D01*
X139627000Y-131547000D01*
X139373000Y-131547000D01*
X139373000Y-131527000D01*
X138648750Y-131527000D01*
X138490000Y-131685750D01*
X138490000Y-132126309D01*
X138586673Y-132359698D01*
X138691974Y-132465000D01*
X138019739Y-132465000D01*
X137899668Y-132285302D01*
X137521849Y-132032851D01*
X137954500Y-131684896D01*
X138224367Y-131191819D01*
X138241904Y-131109039D01*
X138119915Y-130887000D01*
X136627000Y-130887000D01*
X136627000Y-130907000D01*
X136373000Y-130907000D01*
X136373000Y-130887000D01*
X136353000Y-130887000D01*
X136353000Y-130633000D01*
X136373000Y-130633000D01*
X136373000Y-130613000D01*
X136627000Y-130613000D01*
X136627000Y-130633000D01*
X138119915Y-130633000D01*
X138241904Y-130410961D01*
X138224367Y-130328181D01*
X137954500Y-129835104D01*
X137521849Y-129487149D01*
X137899668Y-129234698D01*
X138210737Y-128769151D01*
X138214754Y-128748958D01*
X138428711Y-128535000D01*
X138605178Y-128535000D01*
X138526843Y-128652235D01*
G36*
X134115000Y-114315868D02*
X134115000Y-114320000D01*
X134178561Y-114639541D01*
X134264491Y-114768144D01*
X134359566Y-114910434D01*
X134727995Y-115278863D01*
X134680030Y-115520000D01*
X134789263Y-116069151D01*
X135100332Y-116534698D01*
X135482418Y-116790000D01*
X135100332Y-117045302D01*
X134789263Y-117510849D01*
X134680030Y-118060000D01*
X134789263Y-118609151D01*
X135100332Y-119074698D01*
X135482418Y-119330000D01*
X135100332Y-119585302D01*
X134789263Y-120050849D01*
X134680030Y-120600000D01*
X134789263Y-121149151D01*
X135100332Y-121614698D01*
X135482418Y-121870000D01*
X135100332Y-122125302D01*
X134789263Y-122590849D01*
X134680030Y-123140000D01*
X134789263Y-123689151D01*
X135100332Y-124154698D01*
X135482418Y-124410000D01*
X135100332Y-124665302D01*
X134789263Y-125130849D01*
X134680030Y-125680000D01*
X134789263Y-126229151D01*
X135100332Y-126694698D01*
X135482418Y-126950000D01*
X135100332Y-127205302D01*
X134789263Y-127670849D01*
X134680030Y-128220000D01*
X134789263Y-128769151D01*
X135100332Y-129234698D01*
X135478151Y-129487149D01*
X135045500Y-129835104D01*
X135017370Y-129886502D01*
X134097440Y-128966572D01*
X134097440Y-128300000D01*
X134048157Y-128052235D01*
X133907809Y-127842191D01*
X133697765Y-127701843D01*
X133450000Y-127652560D01*
X132550000Y-127652560D01*
X132335000Y-127695326D01*
X132335000Y-115000000D01*
X132271439Y-114680459D01*
X132090434Y-114409566D01*
X130590434Y-112909566D01*
X130319541Y-112728561D01*
X130000000Y-112665000D01*
X125950000Y-112665000D01*
X125630459Y-112728561D01*
X125373361Y-112900349D01*
X126238709Y-112035000D01*
X126788164Y-112035000D01*
X126799515Y-112046371D01*
X127253266Y-112234785D01*
X127744579Y-112235214D01*
X128198657Y-112047592D01*
X128546371Y-111700485D01*
X128734785Y-111246734D01*
X128735214Y-110755421D01*
X128561499Y-110335000D01*
X130134132Y-110335000D01*
X134115000Y-114315868D01*
X134115000Y-114315868D01*
G37*
X134115000Y-114315868D02*
X134115000Y-114320000D01*
X134178561Y-114639541D01*
X134264491Y-114768144D01*
X134359566Y-114910434D01*
X134727995Y-115278863D01*
X134680030Y-115520000D01*
X134789263Y-116069151D01*
X135100332Y-116534698D01*
X135482418Y-116790000D01*
X135100332Y-117045302D01*
X134789263Y-117510849D01*
X134680030Y-118060000D01*
X134789263Y-118609151D01*
X135100332Y-119074698D01*
X135482418Y-119330000D01*
X135100332Y-119585302D01*
X134789263Y-120050849D01*
X134680030Y-120600000D01*
X134789263Y-121149151D01*
X135100332Y-121614698D01*
X135482418Y-121870000D01*
X135100332Y-122125302D01*
X134789263Y-122590849D01*
X134680030Y-123140000D01*
X134789263Y-123689151D01*
X135100332Y-124154698D01*
X135482418Y-124410000D01*
X135100332Y-124665302D01*
X134789263Y-125130849D01*
X134680030Y-125680000D01*
X134789263Y-126229151D01*
X135100332Y-126694698D01*
X135482418Y-126950000D01*
X135100332Y-127205302D01*
X134789263Y-127670849D01*
X134680030Y-128220000D01*
X134789263Y-128769151D01*
X135100332Y-129234698D01*
X135478151Y-129487149D01*
X135045500Y-129835104D01*
X135017370Y-129886502D01*
X134097440Y-128966572D01*
X134097440Y-128300000D01*
X134048157Y-128052235D01*
X133907809Y-127842191D01*
X133697765Y-127701843D01*
X133450000Y-127652560D01*
X132550000Y-127652560D01*
X132335000Y-127695326D01*
X132335000Y-115000000D01*
X132271439Y-114680459D01*
X132090434Y-114409566D01*
X130590434Y-112909566D01*
X130319541Y-112728561D01*
X130000000Y-112665000D01*
X125950000Y-112665000D01*
X125630459Y-112728561D01*
X125373361Y-112900349D01*
X126238709Y-112035000D01*
X126788164Y-112035000D01*
X126799515Y-112046371D01*
X127253266Y-112234785D01*
X127744579Y-112235214D01*
X128198657Y-112047592D01*
X128546371Y-111700485D01*
X128734785Y-111246734D01*
X128735214Y-110755421D01*
X128561499Y-110335000D01*
X130134132Y-110335000D01*
X134115000Y-114315868D01*
M02*
